<?xml version="1.0" encoding="utf-8"?>
<svg xmlns="http://www.w3.org/2000/svg" width="242" height="240" viewBox="0 0 242 240" fill="none">
  <g id="top">
    <path fill-rule="evenodd" clip-rule="evenodd" d="M159.26 14.84v-.34c-1.25.02-2.54.13-3.66-.26-.75-.26-1.38-.95-2.13-1.11v-.26c-.38-.23-.45-.42-1.11-.43-.37.22-.96-.13-1.19-.34v-.17l-1.11.09v-.26l-.68.09v-.34c-.19-.1-.19-.14-.51-.17-.08-.04-1.67-.34-2.04-.34v-.26c-.45-.3-.55-.52-1.36-.51-1.27 1.05-3.52-.21-4.26-1.02l-.51.09v-.34c-.26-.08-.25-.13-.6-.17-.42.26-1.25-.09-1.79.09-.43.14-1.09.52-1.62.6l-1.28-.17c-1.29-.07-2.76.2-3.92-.09-1.83-.45-3.34-.89-5.28-1.28.19-.21.24-.17.26-.6-.23-.08-.29-.18-.43-.34-.35.13-.34.34-.77.43v.26c-.3.06-.56.17-.68.43-.13.2-.05.36 0 .6h-.94c-.31.26-2.73-.15-3.49.09-.8.24-2.14.38-3.07.6h-1.28c-.37.1-.73.38-1.19.43h-1.45c-.16.06-.33.37-.68.26l-.26-.26h-1.11c-.46-.12-.63-.39-1.28-.43-.93.91-2.87 1.49-4.69 1.02-.53-.14-.95-.39-1.62-.43v-.26c-1.24 0-1.47.64-2.3.94-.96.35-1.94.09-2.81.09v-.26c-.32-.19-.43-.52-.77-.68-.33.23-.57.12-.68.6-.58.13-.98.65-1.53.85-.8.3-1.79-.19-2.3 0-.36.13-.71.52-1.19.6-1.22.18-2.63-1.11-3.32-.68-.42.15-.6.62-1.02.77l-.85.09c-.41.19-.96.48-1.45.68V13c.2.03.21.04.34.09v.09h-.51c-.11-.29-.13-.25-.51-.26-.37.47-1.16.92-1.7 1.19-.4.2-.81.12-1.19.34-.21.12-.87.8-1.11 1.02l-.09.26h-.34c-.54.25-1.29.74-1.87.94-.63.21-.9-.34-1.45-.17-.36.11-.58.51-.85.68-.45.28-.99.24-1.45.51-.44.26-.74.76-1.19 1.02-.35.21-.9.42-1.28.51-.65.16-1-.17-1.62 0-.55.15-1.3 1.15-2.21.77-.25-.11-.23-.3-.68-.34-.9 1.42-1.39 3.17-3.75 3.15-.18-.19-.42-.42-.68-.51-.62.49-1.23 1.1-1.87 1.53-.31.21-.66.27-.94.51-.27.23-.47.65-.77.85l-1.28.51c-1.4.87-2.86 1.92-4.09 2.98-.54.47-1.34.44-1.96.85-1.01.68-1.56 2.01-2.56 2.73-.52.37-1.5.21-2.04.6-.26.18-.29.62-.51.85-.19.2-.5.3-.68.51-.45.52-.89 1.15-1.53 1.45-.47.22-1.1-.24-1.53 0-.22.12-.59 1.47-.77 1.79-.36.68-1.55.65-1.87 1.02-.32.37-.27.79-.51 1.28-.47.94-1.33 1.68-1.87 2.56l-.26.77s-.83.76-.85.77l-1.02.17c-.46 1.07-1.29 2.09-2.04 2.9l-.26.09c-.31.41-.38.94-.68 1.36-.16.23-.5.38-.68.6-.54.65-.88 1.34-1.36 2.04-.31.45-1.06.49-1.36.94-.43.63-.45 1.48-.94 2.04-.56.66-1.01 1.31-1.53 2.04l-.43.43c-.24.59-.2 1.11-.43 1.7-.41 1.08-1.37 2.77-2.04 3.66-.22.29-1.21 1.11-1.53 1.28l-.85.09-.26.43c-.78.63-1.59.92-2.13 1.79-.51.82-.79 1.81-1.02 2.9-.14.68.25 1.65-.09 2.47-.07.18-.35.49-.43.68l-.17.85c-.17.32-.6.61-.77.94-.21.41-.15.76-.34 1.19-.2.44-.55 1.05-.77 1.45-.16.31-.08.66-.26.94-.51.81-1.22 1.66-1.53 2.64-.07.21.08.32.09.43.02.43-.5 2.77-.68 3.15-.29.62-.76 1.32-1.11 1.87l-.34.94c-.39.62-.98 1.1-1.28 1.87-.36.93-.37 1.83-.77 2.73-.18.41-.61.85-.77 1.28l-.34 2.21c-.35.87-1.02 1.49-1.28 2.47-.12.46-.37 2.2-.34 2.56.03.34.16.72.09 1.11-.27 1.47-.29 2.8-.51 4.09-.17 1 .55 2.02.43 2.73-.09.51-.63.77-.77 1.19-.18.55.14.77 0 1.28-.05.2-.29.48-.34.68l.09 1.11-.26.85c-.29.14-1.42.45-1.96.09-.27-.09-.56-.36-.68-.6-.71-.97.5-2.87.09-4.09.28-.07.13.04.26-.17-.23-.58.55-1.93.43-2.81-.21-1.58.56-3.06.94-4.34.36-1.22-.02-2.33.34-3.49.36-1.18.97-2.24 1.45-3.32.32-.72.2-1.36.43-2.13.33-1.11 1-2.29 1.28-3.49.13-.58-.39-.74-.26-1.36.23-1.06.21-1.91.6-2.9.29-.74.97-1.98 1.62-2.39.42-.26 1.13-.33 1.36-.77l.26-1.19c.1-.23.42-.45.51-.68.26-.67.07-1.34.34-1.96.24-.56.52-1.45.77-2.04v-.43c.08-.18.36-.49.43-.68l-.09-.34.26-.09c.11-.16.05-.22 0-.34.18-.28.53-.57.68-.85.27-.51.24-1.1.51-1.62.21-.4.6-1.01.77-1.45v-.51c.22-.48.85-.84 1.11-1.28.3-.53.28-1.19.6-1.7.44-.72.94-1.51 1.45-2.21.36-.5 1.02-.83 1.36-1.36.25-.38.06-.78.26-1.28.24-.62.85-1.15 1.11-1.7l.09-.77c.09-.26.34-.68.51-.94.18-.27 1.42-1.91 1.62-2.04.05-.03.19.1.34 0l.77-.77c.58-.78.96-1.62 1.53-2.39l.68-.6c.17-.24.22-.49.43-.68l.34-.17c.29-.36.35-.78.6-1.19.69-1.17 1.74-2.54 2.56-3.66.55-.75 1.62-1.46 2.13-2.21.27-.41.4-.89.77-1.19.23-.19.53-.17.68-.43.58-.97.97-2.06 1.62-2.98l.94-.94c.28-.42.4-.81.68-1.19l.6-.51c.39-.59.75-1.34 1.28-1.79.97-.82 1.95-1.53 2.98-2.3.32-.24.54-.69.85-.94.19-.15.43-.17.6-.34l.09-.26c.22-.2.6-.18.85-.34l.6-.6c.36-.25.76-.34 1.11-.6.52-.38.86-1.06 1.36-1.45.8-.62 1.72-1.03 2.56-1.62.95-.67 1.85-1.57 2.81-2.21l.77-.26c.49-.26 1.07-.72 1.53-1.02.51-.33 1.06-.37 1.62-.68.26-.14.56-.62.77-.77l.85-.26c.37-.22.73-.63 1.11-.85l1.11-.26c.66-.29 1.28-.89 1.96-1.19 1-.44 2.04-.59 2.98-1.11l.6-.6c.41-.26 1.44-.66 1.87-.85.66-.29 1.66-.45 2.21-.85l.26-.43c.32-.17.79-.07 1.11-.26 1.09-.63 2.09-1.53 3.32-2.04.55-.23 1.18-.04 1.79-.26.19-.07.4-.35.6-.43.58-.23 1-.24 1.53-.51.67-.34 1.94-1.1 2.47-1.62.33-.33.44-.95.85-1.19.93-.55 2.06-.66 3.07-1.11.34-.15.67-.55 1.02-.68l.85-.09c.74-.24 1.8-.65 2.56-.94h1.02c.83-.21 2.16-.06 2.81-.17.36-.06.95-.32 1.28-.43.81-.27 1.78-.11 2.56-.43.05-.02.25-.23.34-.26l.6.09c.46-.08 1.09-.58 1.53-.77.58-.24 1.11-.2 1.7-.43.38-.15.83-.52 1.19-.68.46-.2 1.14-.28 1.53-.43l2.39.09c1.93-.46 4.03-.92 6.13-1.28 1.08-.18 3.19.38 4.43.09 1.81-.43 3.93-.33 5.71.09 1.21.29 3.6-.11 4.6-.34.6-.14 1.38.07 1.79.17.69.16 1.57-.24 2.04-.34.25-.05 1.07.1 1.53 0 .59-.13.98.33 1.7.17.61-.13 1.87-.43 2.81-.17 1.66.46 3.38.92 4.86 1.45.56.2 1.21.22 1.7.34h1.11c.34.11.92.48 1.28.6.29.09.78-.06.94-.09.16-.02.48.14.6.17 1.09.27 2.64.03 3.32-.17 1.06-.3 4.79.09 5.37.34.54.56 1.23.71 1.96 1.11l.34.34h1.19c.32.08.75.18 1.11.34.77.34 1.76.8 2.47 1.28l.43.43h.94c.34.09.68.34 1.02.43h.68c.87.25 1.7.82 2.47 1.19.49.24.95.06 1.53.26 1.02.34 2.58 1.09 3.41 1.7l1.11 1.45c.79.59 2.05 1.83 2.39 2.81.31.92 0 1.87 0 2.98.64.33 1.36.47 1.45 1.36.45.66-.21 3.28-.43 3.66-.12.22-.5.59-.77.68-.59.48-2.01-.09-2.3-.26-.46-.37-.3-1.14-.85-1.45-.75-.55-1.93-.14-2.81-.17-.27-.01-.84-.16-1.19-.26l-2.13-.09c-.62-.17-1.39-.42-1.87-.77l-.85-1.02c-.28-.19-.77.03-1.11-.17l-.09-.26-.77-.26c-.29-.16-1.31-1.08-1.45-1.36-.16-.33.09-.39 0-.68-.05-.15-.26-.34-.34-.51-1.73.02-2.96-.62-4.34-.68l-.1-.02Z" fill="#2C1910"/>
  </g>
  <g id="bottom-right">
    <path fill-rule="evenodd" clip-rule="evenodd" d="M232.26 72.77c.11.59.52.72.77 1.11.28.43.17.86.51 1.19v.09c.6.46 1.35.39 1.79 1.02.68.86-.42 1.71-.51 2.47.38.33.29 1.22.51 1.7.21.46.76.72 1.02 1.11.21.3.08.67.26 1.02.14.28.64.56.77.85l.17 1.87c-.03.1-.19.14-.17.34.07.73.73 1.41 1.19 1.79 0 .37-.03.67-.09.94-.69.39-1.23.43-1.19 1.62.44.74.37 2.31.68 3.24.48 1.45.81 3.26 1.19 4.86v2.21c.32 1.33.6 2.79.94 4.26v4.51l-.09.94c.85 2.8.24 5.99-.17 8.94l.09.09c.27-.01.13-.04.34 0 .07.19.09.46.09.77.1.22-.2.3-.09.6h.17c.34.81.04 1.66 0 2.56h.17v.09l.17-.09v.09c.8 1.19.82 5.9.34 7.58-.21.73-.93 1.48-.68 2.56.29 1.24.76 3.93.26 5.62-.35 1.16-1.05 2.41-1.45 3.49-.16.44-.02.79-.17 1.28-.09.3-.41.67-.51.94v.43l-.43.34v.34c-.21.3-.68.59-.85.94l-.09.6c-.74 1.55-1.17 3.82-1.7 5.54l-.17 3.24c-.12.43-.52.74-.68 1.11v.43c-.28.76-.86 1.68-1.19 2.47-.47 1.11-.47 2.35-.94 3.49-.19.47-.87 1.41-.94 1.79l.26.09s-.46 1.79-.51 1.87l-.43.34c-.03.06.13.18.09.34-.23.81-.4 1.74-.6 2.47v1.19c-.02.62-.09 1.61-.34 2.13-.05.09-.3.33-.34.43l-.09.68c-.79 1.06-2.27 1.58-3.07 2.64-.39.52-.78 1.06-1.11 1.62l-.26.77c-.61.86-1.32 1.71-1.96 2.56-.49.64-1.62.86-2.04 1.53-.3.48-.38 1.06-.68 1.53-.25.4-.71.84-.94 1.28-.15.3-.31.83-.17 1.11l-.26.17c-.47.88-.59 1.81-1.11 2.64-.09.15-.43.26-.51.43-.08.17 0 .39-.09.51-.16-.15-.07-.16-.26-.09-.82.35-1.56 1.94-2.04 2.73-.37.59-.88 1.05-1.36 1.53l-.09.26h-.34c-.17.09-.57.44-.68.6-.36.51-.59 1.18-.94 1.7-.43.65-1.57 1.15-2.04 1.79-1.06 1.44-2.33 2.25-3.83 3.24-.47.31-1.08 1.39-1.45 1.87-.39.51-1.28 1.38-1.79 1.79-.2.16-.52.23-.68.43-.75.88-1.27 1.95-1.96 2.9-.36.49-1.05.81-1.53 1.19-.28.22-.28.67-.6.85-.13-.09-.35-.09-.6-.09-.35.51-.77.58-1.28.94-.54.38-1 .97-1.45 1.45-.38.41-.8.14-.85.94h-.43v.26c-.75.11-2.77 1.34-2.9 2.04l.17.17c-.8.06-.92.7-1.28 1.19-.57.78-1.6 1.19-2.13 2.04.8-.02.55.09 1.19.26v.09c-.33.08-.37.27-.51.51l-.43-.09v-.43c-.22-.12-.35-.21-.68-.26-.16.26-.26.47-.34.85-.17-.16-.16-.24-.43-.34-.44.6-1.41.71-1.87 1.28-.16.23-.17.63-.34.85-.1-.07-.14-.07-.34-.09v.26c-.21.09-.3.29-.51.34l-.51-.09c-.17.07-.29.33-.51.43-.05-.2-.1-.27-.17-.43-.74.19-1.43.3-2.3.34v-.34l-.09-.09c-.28-.03-.85.09-.85.09-.06-.05-.11-.22-.17-.26-.14-.08-.31.11-.34.09-.26-.28.12-.29-.43-.34 0 0-.04.34-.09.17v-.09c-.49-.15-.22-.34-.51-.6-.18-.16-.54-.04-.68 0-.52-.23-.58-.85-1.28-.94v-.26h-.43v-.34c-.71-.51-1.87-1.75-1.96-2.81h-.26c-.25-3.77 1.24-4.88 4.17-5.96h1.36c.81-.2 2.74-.51 2.98-1.36l.6-.09c.48-.71 1.36-1.19 1.96-1.79.6-.6 1.07-1.5 1.79-1.96.37-.24.77-.26 1.11-.51.29-.22.4-.71.68-.94.29-.23.64-.29.94-.51.48-.35.84-.94 1.36-1.28.25-.16.72-.25.94-.43.19-.15.28-.47.51-.6l.94-.26c.08-.07.08-.28.17-.34.18-.13.44-.11.6-.26.13-.13.13-.37.26-.51.32-.38.87-.55 1.28-.85l1.02-1.02c.64-.47 1.29-.93 1.62-1.7 1.37.03 1.72-.87 2.13-2.04.23.04.32.12.51 0 .18-.19.3-.63.51-.77.14-.09.3.15.51 0 .23-.16.3-.59.51-.77.2-.17.47-.19.68-.34.18-.14.26-.47.43-.6.37-.29.93-.22 1.28-.51.22-.18.47-.77.68-.94.21-.17.69-.27.94-.43.44-.29.42-.97.77-1.36.51-.58 2.09-1.86 2.13-2.73-.21-.11-.06.04-.17-.17.22-.12.1.02.17-.26-.15-.05-.08-.02-.17-.09.94-.42 1.08-1.24 1.62-2.04.18-.26.6-.42.77-.68.25-.4.34-.72.6-1.11l.6-.6c.88-1.44.94-2.11 2.56-2.9.02-.33.03-.22 0-.51l.17.09v-.09c.2-.3.1-.91.09-1.45h.09c.15.28.18.39.6.43.4-1.17 1.7-1.94 1.79-3.41h.26c.18-.61 1.01-2.07 1.45-2.47-.06-.2-.09-.19-.17-.34h.09c.27-.19.62-.21.85-.43.24-.22.32-.76.51-1.02.21-.29.65-.47.85-.77l.34-.94c.07-.08.29-.07.34-.17.27-.51.22-.92.51-1.36.38-.57 1.01-1 1.28-1.7.27-.71.2-1.97.26-2.56l-.09-.6c.03-.1.29-.31.34-.43.15-.39.06-.7.26-1.02.17-.28.57-.49.68-.85.17-.54.18-1.3.43-1.96.16-.42.43-.64.51-1.19h-.26c-.09-.24-.13-.18-.17-.51.07-.09.03-.02.09-.17h.17v.09c.22.14.12.29.34.43v-.09c.29-.46.22-.95.43-1.53.28-.8.87-1.57 1.19-2.39.18-.47.03-1.08.09-1.45.07-.4.58-2.63.77-2.9l.26-.09c.32-.54-.16-.95.17-1.28.13-.16.08-.12.34-.17 0-1.85 1.2-2.85 1.79-4.17v-.17c.01-.08.37-1.37.17-1.53.77-.79.74-2.77 1.11-3.92l.09-.77c.21-.44.84-.72 1.11-1.11.44-.63 1.26-3.42 1.11-4.26h-.34v-.43h.34c-.08-1.53-.2-3.55-.77-4.69.01-.19.21-.64.26-.85.16-.69-.26-2.3-.43-2.98l-.09-4.6c-.06-.13-.33-.35-.43-.51.53-.21.58-.51.94-.85v-.6c-.21-.07-.4-.06-.51-.26l.09-.09c.2.1.15.17.34.09.11-.16.09-.49.09-.77l-.34-.17v-.09c.49-.1.38-.71.34-1.28.22-.37-.13-.56-.09-.77.13-.26.46-.57.68-.77-.09-1.49-.97-2.75-.6-4.43.06-.25.12-.73.26-.94.13-.2.46-.39.51-.68.07-.39-.57-1.77-.68-2.21-.2-.81.47-1.93.26-2.81l-.43-1.53-.34-.26c-.08-.15.13-.06.17-.09l-.09-1.45c-.09-.25-.4-.33-.51-.51-.59-.96-.18-3.91-1.02-4.26.42-.64-.19-1.62 0-2.47.21-.93.84-1.15.85-2.3-1-.74-2.91-2.18-2.73-4 .12-1.16.74-1.9.51-3.15-.53-.13-1.14-.89-1.36-1.36h-.26c-.05-1.28-1.32-2.45-1.7-3.58-.24-.69.17-1.19 0-1.87-.28-1.1-.77-2.47-1.36-3.32-.06-.08-.29-.1-.34-.17l-.09-.6c-.16-.34-.4-.89-.51-1.28-.14-.49-.03-.98-.26-1.36-.74-1.24-2.95-2.84-3.24-4.34-.1-.5.26-.63.26-1.11-.42-.45-.54-1.23-1.28-1.36v.34l-.68.09c-.36-.62-1.02-1.06-1.36-1.7-.23-.43.1-1.04-.09-1.36h-.09c-.18-.21-.32-.03-.6-.17-.45-.23-.29-.59-1.11-.6v-.43c-1.11-.36-2.02-1.47-2.9-2.13-.89-.67-2.34-.87-2.98-1.79-.86-1.24-1.59-2.49-2.39-3.83l-.43-.43c-.38-.71-.65-1.34-1.11-1.96-.53-.72-1.39-.84-2.13-1.36-.23-.16-.19-.67-.43-.85-.75-.57-1.7-1-2.21-1.79-.23-.34-.26-.72-.51-1.02l.26-.68-.77-.77c-.47-.25-.87-.22-1.28-.51-.28-.2-.3-.58-.51-.85l-1.11-.94c-.35-.22-.73-.22-1.11-.43-.85-.45-1.44-1.36-2.21-1.87-.26-.17-.61-.15-.85-.34-1.41-1.09-2.66-2.1-3.32-3.75-1.03-.09-2.4-1.63-2.64-2.47l.09-.68c-.15-.4-.74-.72-1.28-.77-.06-.44-.16-.6-.09-1.02.15-.08.14-.11.34-.17.07-.03.62 0 .94 0 .41.6 1.86 1.85 2.47 2.3.2.15.5.17.68.34.17.16.23.46.43.6.78.55 1.53 1.12 2.3 1.62.51.33 1.08.37 1.62.68.36.21.74.68 1.11.85l.6.09c.45.29.85.87 1.28 1.19.17.13.43.05.6.17l.68.77c.56.42 1.15.86 1.62 1.36.34-.12.34-.24.85-.26.29.37.73.57 1.11.85 1.09.82 2.06 2.07 2.9 3.15.26.34.78.57 1.02.94.26.39.26.89.51 1.28l.26.17.26.68.6.43.26.68c.22.32.63.61.85.94l.17.51c.25.29 1.47 1.66 1.7 1.79.23.13.42.01.6.17.96.88 1.83 1.76 2.9 2.56.36.26 1.44 1.42 1.7 1.79.22.3.32.71.6.94.31.26.62.43.94.68l.26.43.6.09c.37.15.76.52 1.11.77.76.53 1.06 1.56 1.7 2.21.78.79 1.62 1.49 2.3 2.39.51.67 1.62.78 2.13 1.45.22.29.23.7.43 1.02.31.51.85 1.07 1.11 1.62l.34 1.28.77.77.17 1.19.26.17.34.94c.3.45 1 .51 1.19 1.11.15.45-.13 1.06.09 1.62.16.42.64.74.85 1.11.28.48-.04 1.01.68 1.11h-.06Z" fill="#2C1910"/>
  </g>
  <g id="butteryfly">
    <g id="butteryfly-right">
      <path fill-rule="evenodd" clip-rule="evenodd" d="M138.13 118.17c0 .65-.29.82-.43 1.28l-.17 1.19c-.23.55-.69 1.11-.94 1.62-.14.3-.21 1.15-.34 1.36-.11.18-.55.3-.68.51-.37.59-.35 1.25-.68 1.87-.05.09-.29.18-.34.26-.47.7-.38 1.68-.68 2.56-.14.42-.48.94-.6 1.36-.23.85-.07 1.82-.26 2.64v1.02c-.1.34-.37.96-.51 1.28-.25.56.08 1.73.17 2.13.14.65-.15.94 0 1.62.23 1 .05 2.24.34 3.32.1.36.59 1.03.51 1.45-.18.94-.88 1.22-1.28 1.87l-.09.85-.26.17c-.07.19.08.23.09.34 0 .47.02 1.46-.09 2.04-.26 1.48.12 3.37.51 4.69l.09.94c.15.34.57.72.68 1.11l-.09 1.11-.34.26c-.14.32-.11 1.86 0 2.3.37 1.51.65 3 1.11 4.51.1.33.41.77.51 1.11.06.22-.11.49 0 .85.17.55.67 1.25.94 1.79.45.91.46 1.89.85 2.81.56 1.29 1.34 2.68 1.87 3.92.42.97.51 1.9.94 2.9.19.44.61.88.85 1.28.52.84.81 1.62 1.36 2.39l.68.68c.37.53.48 1.15.85 1.7.27.4.87.35 1.19.68.62.64.71 1.78 1.19 2.56.15.24.45.45.6.68l.17.51c.22.26.64.42.85.68.27.34.38.8.68 1.11.37.37.83.46 1.28.77.64.44 1.12 1.12 1.7 1.62.33.28.81.26 1.19.51.77.5 1.11 1.59 1.87 2.13.92.64 2.64 1.42 2.81 2.73-.3.2-.43.52-.68.77.33 1.18 1.58 1.42 1.62 2.81-.6.35-1.01.52-2.04.51-.55-.52-1.26-.83-1.79-1.36-.39-.39-.6-.92-.94-1.36-.48-.64-1.23-1.14-1.7-1.79-.32-.44-.44-.98-.77-1.45l-1.45-1.45c-.2-.3-.22-.65-.43-.94-.21-.29-.59-.43-.85-.68-.26-.25-.43-.6-.68-.85-.54-.54-1.16-.99-1.7-1.53-.22-.22-.32-.52-.51-.77l-1.02-.85c-.26-.37-.3-.8-.6-1.11-.43-.45-.76-.99-1.19-1.45l-.26-.09c-.24-.3-.29-.7-.51-1.02a43.9 43.9 0 0 1-2.64-4.34c-.45-.85-1.28-1.69-1.7-2.56-.41-.85-.52-1.78-1.02-2.56-.17-.26-.54-.49-.68-.77-.2-.38-.09-.68-.26-1.11-.27-.7-.94-1.46-1.19-2.21-.09-.28.13-.5.09-.68-.05-.22-.4-.42-.51-.6-.13-.21-.07-.44-.17-.68-.18-.43-.5-.94-.68-1.36l-.26-1.11c-.51-1.06-1.03-2.36-1.53-3.41-.28-.58-.09-1.61-.34-2.21-.11-.28-.5-.48-.6-.77l-.09-1.87c-.16-.59-.52-1.24-.68-1.79-.24-.78-.04-1.44-.26-2.21-.06-.21-.3-.49-.34-.68-.04-.22.17-.53 0-.94-.07-.16-.28-.47-.34-.68-.17-.66.06-1.2-.17-1.87-.05-.15-.29-.34-.34-.51-.2-.63-.07-1.09-.26-1.79-.07-.27-.27-.64-.34-.94l.09-1.28-.17-1.53.17-.09c.12-.41-.29-.94-.34-1.11-.13-.42.22-.57.17-.94-.07-.49-.4-.88-.26-1.36-.37-.07-.34-.09-.34-.51.5-.6-.2-2.46-.17-3.32 0-.29-.06-1.08 0-1.45.06-.4.36-.95.43-1.28.06-.34-.22-.25-.17-.6.16-1.07.09-2.42.09-3.92h.26v-.17c.12-.25-.04-.27-.09-.51.13-.33.43-.62.6-.94h.26v-.34c.29.02.2.18.34-.09.22-.48.14-1.6.43-2.3.7-1.73 1.06-4.18 1.87-6.05v-1.28c.11-.28.48-.69.6-1.02v-.68c.07-.27.28-.67.34-.94l-.09-.34c.08-.34.46-.73.6-1.02.36-.77.49-1.38.94-2.04.4-.59 1.15-.97 1.53-1.62.22-.37.21-.76.43-1.11.34-.54.93-1.03 1.19-1.62l.17-.94c.32-.59.44-1.29.77-2.13.09-.22 1.24-1.67 1.45-1.87.31-.3.88-.3 1.19-.6.41-.39.67-1.02 1.11-1.36.52-.42 1.49-1.03 1.53-1.87-.15-.05-.08-.02-.17-.09.55-.03.51-.22.85-.43.06-.53.42-1.12.26-1.7-.06-.22-.33-.82-.17-1.28.07-.21.17-.51.17-.94.42-.29.64-.81 1.02-1.11.67-.52 1.76-1.09 2.21-1.79.17-.26.11-.58.34-.77 1.2-.98 2.58-1.72 3.83-2.64.7-.52 1.23-1.3 1.96-1.79-.03-.15 0-.41 0-.77l1.36-1.36c1.35-1.01 2.88-1.66 4.26-2.64.76-.54 1.47-1.32 2.21-1.87.56-.42 1.23-.61 1.79-1.02l.85-.85.94-.34c1.41-.89 2.73-2.01 4.17-2.9l1.02-.34c.23-.15.41-.55.68-.68h.34c.27-.12.46-.45.68-.6.31-.21.72-.21 1.02-.43.74-.53 1.19-1.44 2.04-1.87.4-.2.73-.11 1.19-.26.77-.23 1.48-.48 2.39-.68l1.7-.09c1.45-.47 3.11-.87 4.43-1.53.17-.08.4-.35.6-.43.35-.13.6-.06.85-.26.17-.21.15-.65.34-.85.37-.39 1.46-.62 1.96-.94 1.72-1.1 3.62-2.25 5.88-2.81.82-.2.79.4 1.11.68.24.21.7.41.85.68l.17.77c.34.8.92 1.21.68 2.47l-1.45.68c-.31.33-.86 1.98-.85 2.73.46.33 1.33 1.84 1.7 2.39.17.25.92.73 1.02.94v1.02l.26 1.7c0 .11-.16.22-.09.43.13.39.59.9.77 1.28.35.77.69 2.06.85 2.9.08.42-.4 2.45-.51 2.81-.32 1.01-.28 1.97-.68 2.9-.13.31-.45.39-.6.94l-.09 1.87c-.14.58-.5 1.83-.43 2.56.07.68-.11 1.6.09 2.47.11.49.28 1.21.09 1.87-.17.58-.75 1.04-.94 1.62v.68l-.43 2.98c-.11.33-.46.43-.6.68l-.26 1.45c-.34.94-.95 1.88-1.28 2.81l-.17 1.7c-.04.06-.29.1-.34.17-.32.44-.58 1.08-.77 1.62-.36 1.01-.15 2-.68 2.81l-.85.77c-.24.35-.35.68-.6 1.02l-.6.51c-.25.44-.24.82-.51 1.19-.56.77-1.48 1.35-2.04 2.13-.42.58-.53 1.36-.94 1.96-.59.87-1.3 1.79-1.96 2.64l-.94.77c-.2.26-.34.57-.6.77-.55.4-1.62.39-2.13.85-.35.31-.48.81-.77 1.19-.29.39-.82.64-1.11 1.02-.28.38-.46.83-.77 1.19-.22.26-.66.39-.94.6-.83.62-1.53 1.41-2.39 2.04-1.23.92-2.25 2.16-3.41 3.15-.57.49-1.19.53-1.96.85-.42.18-.78.59-1.19.77-.24.1-1.16.36-1.45.26-.13-.05-.48-.29-.85-.17-1.79.6-2.82 2.22-5.11 2.3-.11-.29-.08-.42-.43-.51-.81-.58-2.59.38-3.41.6-.79.21-1.51-.55-2.04-.77.02-.54.05-.66-.09-1.02.35-.07.72-.21.94-.43.3.17.47.31.94.34l.26-.26c.12-.26-.06-.57.09-.77.09-.12.3-.08.43-.17.38-.28.63-.82 1.02-1.11.46-.34 1.12-.54 1.53-.94.2-.19.28-.52.51-.68.75-.55 2.37-1.57 3.24-1.87l.85-.09c.32-.12.67-.47 1.02-.6.52-.19 1-.09 1.45-.34l.6-.6c.3-.21.68-.27.94-.51.34-.33.63-.85 1.02-1.11.29-.19.57-.16.77-.43.53-.72.98-1.37 1.7-1.87.23-.16.54-.17.77-.34.35-.26.66-.86 1.11-1.02h1.19s.16-.17.26-.17h.17c.27.07.44.54 1.02.34.16-.06 1.11-.94 1.11-.94-.06-.23.98-1.09 1.11-1.28.58-.86.75-1.84 1.45-2.56.56-.58 1.41-.96 1.79-1.7.38-.75.44-2.18 1.53-2.21l.43.43c.15.3-.01.47.17.68v-.09c.52-.42.67-1.2 1.11-1.7.25-.29.76-.61.94-.94.13-.25.04-.46.17-.68.7-1.17 1.59-2.65 2.04-4v-1.19c.09-.22.42-.53.51-.77.11-.28.03-.46.17-.68l.34-.26c.54-.96.63-2.42 1.11-3.41l-.17-1.02c.04-.25.33-1.44.26-1.62-.14-.33-.26.03-.26-.51-.23 0-.14.11-.26-.17.13-.24-.12-.81 0-1.28.12-.48.46-1.44.17-2.13-.12-.29-.4-.53-.51-.85l.17-.17c.15.08.14.11.34.17v-.34c-.12-.24.11-.74 0-1.19l-.26-.68c-.97-.14-1.78-1.04-2.04-1.87-.25-.79.01-1.6-.34-2.13-.1-.07-.14-.07-.34-.09-.36.34-.99.15-1.53.34-2.06.7-4.26-.51-5.11-1.79-.55-.84-.67-2.01-2.04-2.04-.21.13-.61.06-.85.17-.52.24-1.09.71-1.62.94-.63.27-1.36.11-1.96.43l-.09.26-.85-.09-.43.51-.85-.09c-.19.07-.42.41-.6.51-1.06.56-2.03 1.02-2.98 1.7-.45.32-.82.88-1.28 1.19-.35.24-.75.27-1.11.51l-.94.94-.51.17c-.11.08-.08.25-.17.34-.31.32-.66.5-1.02.77-.23.17-.31.49-.51.68-.21.2-1.46 1.07-1.7 1.19l-1.02.26c-.32.2-1.01.78-1.19 1.11-.12.22 0 .44-.17.6l-.43.09-1.28 1.19c-.09.16-.01.4-.09.51-.37.37-.83.17-1.36.43-1.11.54-2.38 1.31-3.49 1.79-.7.3-1.45.36-2.04.77-1.03.69-2.04 2.34-2.73 3.41-.17.27-.16.6-.34.85-.79 1.13-2.12 2.03-2.9 3.07-.12.16-.12.36-.26.51-.12.13-.41.2-.51.34-.82 1.09-.97 2.67-1.53 4-.06.15-.28.36-.34.51l-.17.85c-.11.19-.43.35-.51.6-.14.43.11.76 0 1.11-.22-.04-.38-.08-.68-.09l.07.02Z" fill="#2C1910"/>
    </g>
    <g id="butteryfly-left">
      <path fill-rule="evenodd" clip-rule="evenodd" d="M120.84 138.02c.18-.03.16-.02.26-.09.18-.21.13-.39.43-.51.23-.16.61-.06.85 0v.43c-.25.25-1.25 2.02-1.36 2.39-.03.09-.09 1.62-.09 1.62l.26.09c.12.25-.34 2.51-.43 2.64-.2.43-.71.87-1.19 1.02-.39.13-.66-.01-.85.09-.22.14-.28.18-.34.51.08.16.03.1 0 .34h.26c.14-.17.12-.14.43-.17.19.24.77.7.6 1.02-.25.79-1.11 1.45-1.53 2.13l-.17.68-.6.6c-.24.38-.26.82-.51 1.19-.16.23-.5.38-.6.68l-.09 1.36c-.42 1.38-1.05 2.85-1.02 4.51-.34.24-.71.27-1.36.26-.18.35-.28.84-.51 1.19l-.68.68.09.43c-.08.33-.39.82-.6 1.11-.21.31-.63.45-.85.77l-.09-.09c-.07-.09-.03-.02-.09-.17.23-.26.45-.53.51-.94-.13-.05-.14-.06-.34-.09-.11.37-.38.64-.51.94-.16.36-.07.8-.26 1.11-.2.34-.6.74-.77 1.11v.43h-.17c-.17.19-.49.55-.6.77-.23.47-.31 1.05-.6 1.45-.62.85-1.55 1.57-1.87 2.73-.29-.05-.34-.18-.51.09-.03.13.17.51.17.51-.13.49-.55.79-.77 1.19-.36.65-.52 1.3-.94 1.87-.26.36-.73.72-.94 1.11-.36.66-.52 1.26-.94 1.87-.63.94-1.68 1.79-2.21 2.81-.4.77-.54 1.4-1.02 2.04-.24.33-.79.44-1.02.77-.26.37-.43.9-.77 1.19-.44.38-1.17.31-1.7.6-.52.27-1.34 1.05-1.87 1.45-.83.62-1.17 1.72-1.87 2.47-.78.84-1.61 1.62-2.47 2.39-.1.78-1.87 2.46-2.56 3.07-1.79 1.6-3.32 3.43-5.45 4.69-.94.55-2.6.18-2.9-.68-.14-.16-.23-.57-.17-.68.26-.76 1.16-1.26 1.62-1.87 1.33-1.79 2.91-3.6 4.69-4.94.48-.36.77-.94 1.19-1.36.36-.36.88-.61 1.19-1.02.81-1.07 1.58-2.09 2.39-3.15l1.02-.85c.31-.41.73-.71 1.02-1.11.2-.27.28-.61.51-.85.08-.09.28-.06.34-.17.2-.33.19-.65.43-.94.47-.57 1.1-1.01 1.62-1.53.28-.29.36-.68.6-1.02l1.11-.94c.8-1.05 1.8-1.97 2.73-2.9.5-.5 1.2-.88 1.62-1.45.42-.57.63-1.16 1.02-1.79.21-.34.67-.68.85-1.02.28-.54.28-.99.6-1.45.47-.69 1.23-1.34 1.7-2.04l.26-.68c.22-.24.66-.32.85-.6.19-.27.26-.65.51-.85.35-.28.77-.4 1.02-.77.42-.62.52-1.23.85-1.96.09-.19.42-.42.51-.6l.17-.77c.33-.53 1.19-1.17 1.53-1.7.31-.48.26-1.05.51-1.62.62-1.44 1.53-3.06 2.21-4.43l.17-.85c.17-.3.58-.69.77-1.02l.17-.77c.1-.16.26-.06.43-.17.08-.05.66-1.03.68-1.28-.44-.71 1.04-2.7 1.28-3.24.17-.38.03-1.26.17-1.62l.09-1.36.26-.26c.08-.23-.06-.58-.09-.68-.07-.33.11-.71.17-.94v-2.21l.17-.09.09-1.02.26-.17c.19-.45-.17-1.29-.26-1.53-.16-.45 0-1.46.09-1.79.12-.53-.06-1.31-.09-1.7-.06-.98.52-1.87.26-2.9-.14-.53-.19-1.19-.34-1.79v-.77c-.11-.36-.44-.8-.6-1.11l-.26-1.19c-.11-.2-.43-.38-.51-.6l-.09-.94c-.47-1.11-1.07-2.44-1.53-3.58-.32-.77-.3-1.44-.68-2.13l-.34-.26v-.34c-.1-.25-.4-.48-.51-.68-.3-.55-.36-1.33-.68-1.87-.35-.6-1.12-.89-1.53-1.45-.58-.79-.88-1.73-1.45-2.56l-.6-.51c-.27-.43-.64-.98-.85-1.36l-.17-.77c-.1-.24-.41-.47-.51-.68l-.09-.94c-.07-.17-.36-.36-.43-.6v-.77c-.07-.13-1.47-1.12-1.7-1.28-.85-.59-1.43-1.79-2.04-2.64-.18-.25-.55-.47-.68-.77-.14-.32-.11-.7-.09-.94-.56-.33-1.2-.87-1.79-1.11-.56-.23-1.14-.28-1.62-.6-1.12-.75-2.3-1.65-3.49-2.3-.72-.4-1.65-.5-2.39-.94-.98-.59-1.76-1.29-2.64-1.96-.23-.17-.33-.45-.51-.68l-1.53-1.53c-.54-.83-.54-2.02-1.87-2.04-.53.35-2.48.28-3.15.09-.7-.2-1.64-.59-2.3-.85-.39-.16-.95-.1-1.36-.26-.45-.17-1.02-.66-1.45-.85-.27-.12-.42.08-.6 0-.31-.14.05-.3-.68-.34-.09.21-.18.51-.6.6v.26c-.32.1-.9.24-1.02.51-.14.23-.02.43 0 .68.04.48-.12 1.11-.09 1.45.06.62.54 1.73.26 2.64-.27.86-.86 1.5-1.45 2.04-.08 2.64.58 5.28 1.19 7.5l.09 1.11c.29.85.79 1.84 1.11 2.64l.09.77c.15.31.37.78.6 1.11.12.18.43.2.51.43v.68c.09.32.25.79.43 1.11.15.28.51.59.68.85.52.79.77 1.66 1.28 2.47.49.8 1.23 1.65 1.62 2.56.16.37.04.64.17 1.11.16.59.44 1.57.6 2.13l.09 1.45h-.17c-.31.47-.48 1.16-.26 1.79.09.25.4.4.51.6l.26 1.11c.27.62.83 1.31 1.19 1.87l.34.94c.23.34.63.58.94.85l1.02 1.19c.88.67 1.77 1.29 2.56 2.04.29-.08.4-.25.6-.17.12.19.68 2.73.68 2.73-.38.63-.79 1.52-1.36 1.96-.25.19-.57.17-.85.34-2.52 1.48-4.26 1.07-6.81-.09-.48-.22-.95-.11-1.45-.34l-.51-.51h-.43c-1.17-.57-1.77-2.02-2.81-2.73-.57-.38-1.26-.43-1.87-.77l-.51-.6c-.96-.72-1.89-1.38-2.56-2.39-.35-.54-.15-1.51-.51-2.04-.17-.25-.54-.31-.77-.51-.32-.28-.94-1.01-1.28-1.19l-.68-.09c-.12-.05-.72-.63-.85-.77-.1-.1-.61-.67-.68-.77-.21-.3-.11-.76-.34-1.02-.62-.72-1.78-1.2-2.3-1.79-.25-.28-.29-.71-.51-1.02l-1.02-1.02c-.62-.89-1.08-1.76-1.7-2.64-.64-.91-1.95-1.33-2.9-1.96-1.14-.76-2.17-2.34-2.56-3.83-.27 0-.16.12-.26-.17.17-.38-.63-2.24-.77-2.73-.19-.66-.12-1.19-.43-1.7l-.94-.94-.17-.77c-.18-.38-.53-.86-.68-1.28v-.51c-.19-.36-1.51-.83-1.87-1.11-.12-.09-.78-1.41-.94-1.79-.4-.98.19-5.52.51-7.07.11-.54-.44-.93-.6-1.28-.28-.64-.34-1.43-.51-2.13-.47-1.89.59-3.35.68-4.69-.22-.18-.3-.21-.34-.6.07-.09.03-.02.09-.17.26.04.28.07.51 0 .04-.8.16-1.82.43-2.73v-.94c.22-.61.65-1.6.68-2.3.01-.27-.2-.11-.26-.26l.09-.94c-.34-.01-.27 0-.26-.51-.26-.42.18-1.4 0-1.53-.13-.51-.52-.87-.68-1.36l-.26-1.53-.43-.43c-.17-.27-.16-.59-.34-.85-.2-.3-.59-.42-.77-.77.83-.57 1.84-2.1 2.3-3.07 1.01.32 2.35.37 3.32.6.45.11.79-.03 1.11.17.96.6 2.53 2.61 3.58 2.9l2.04-.26c1.21.22 2.41.53 3.41.85l.77.09c.79.43 2.11 1.26 2.73 1.87.28.28.45.8.77 1.02.36.25.88-.04 1.36.17.41.18.39.48 1.11.51.13-.19.18-.26.43-.34.59.89 1.46.98 2.39 1.53 1.23.75 2.42 1.8 3.92 2.3 1.58.53 3.33.9 4.86 1.36l1.7.26c1.39.58 2.17 1.58 3.15 2.56-.01.71-.3 1.42-.17 1.62.44.82 1.47.93 2.73.94h1.02c.96.34 1.5 1.01 2.39 1.36.03.96.75 1.32 1.28 1.79.77.69 1.39 1.58 2.13 2.3.35.34.82.55 1.11.94 2.24 2.97 5.42 5.04 8.43 7.24.13.1.87.9.94 1.02l.17.85.43.26c.32.38.56.96.94 1.28.46.39 1.58 1.32 1.87 1.79.27.42.24 1.04.6 1.36l.85.26c.6.38.85 1.24 1.02 2.04.4.19 1.09.44 1.36.77 1.17 1.4 1.43 3.56 2.04 5.54.12.38.47.89.6 1.28.2.61.05 1 .26 1.62.21.64.62 1.3.85 1.87.19.48.17.88.43 1.28.34.52.9 1.17 1.11 1.79l.26 2.39c.2.56.55 1.36.77 1.87.23.53.1.98.34 1.45.22.43.7.98.85 1.45v1.53c.1.34.43.8.51 1.11.21.77-.59.91-.34 1.62.1.3.42.96.51 1.28l-.17 1.7c.09.33.46.93.26 1.53-.1.3-.49.78-.6 1.11-.21.65-.02 1.31 0 1.96h-.08Z" fill="#2C1910"/>
    </g>
  </g>
  <g id="bottom-left">
    <path fill-rule="evenodd" clip-rule="evenodd" d="M11.89 132.39c-.03.83.07 1.46.34 1.96.03.05-.13.18-.09.34.03.12.23.42.26.51v1.02l.34.34c.23.45.1.85.26 1.36.27.9.74 1.96 1.02 2.81l.26 1.87c.09.31.3.35.34.43v.6c.2.68.4 1.64.68 2.21l.09.85c.2.68.32 1.59.51 2.39l.09 1.45c.17.31.55.86.68 1.19.14.35 0 .64.17.94l.51.43v.68c.06.14.27.15.34.26.08.12.16.65.34.94.46.74 1.04 1.67 1.36 2.56.15.42.03.69.17 1.11.2.57.48 1.41.68 1.96l.17 1.02c.94 1.93 2.17 3.85 3.07 5.88.25.57.17 1.02.43 1.62.12.29.41.58.51.94.15.55-.04.99.17 1.45.68 1.48 1.89 2.79 2.73 4.17.27.45.06 1.28.26 1.62.24.4.88.57 1.11.94.15.23.04.46.17.68.29.48.82.78 1.11 1.28.32.54-.16 1.49.09 2.13.11.3.44.55.6.85h.26c.07.87.77 1.54 1.11 2.21.2.39.23.95.51 1.28.13.15.4.25.51.43l.26.68.43.34c.22.36.21.84.51 1.11l.43.09c.42.23.93.56 1.36.85.36.24.5.6.77.94.26.33.77.5 1.02.85.48.68.49 1.67.68 2.64 1.5.51 3.01 1.98 3.92 3.15l.6.43c.23.29.39.63.68.85.97.73 2.3 1.3 2.98 2.3.31.46.33 1.29.77 1.62.27.2.5.08.85.26.28.14 1.59 1.34 1.87 1.62.75.75 1.51 1.7 2.04 2.64l.26.94c.31.47 1.02.73 1.36 1.19.42.56.99 1.07 1.36 1.62.32.48.44.98.77 1.45.58.81 1.31.83 2.39 1.19.91.31 1.7 1.06 2.47 1.53l.43.09c.13.1.15.37.26.51.11.14.28.14.43.26.16.13.13.33.26.51.28.4.85.68 1.11 1.11.27.44.26 1.08.77 1.28.37.22 1.71.24 2.21.43.49.18.79.74 1.28.94.67.27 1.37.32 1.96.68.22.13.47.49.68.6.63.32 1.31.24 1.96.51.76.31 1.32.94 2.13 1.28 0 .71.28.82.51 1.28h.26c.21.87 2.61 1.17 3.41 1.62.3.17.72.47 1.11.6.6.09 1.19.17 1.79.26.81.3 1.88.5 2.73.85.42.17.87.58 1.28.77l.68.09c.11.05 1.81 1.28 1.87 1.36.31.37.57.99 1.02 1.19.3.2 1.64.01 1.79-.26.14-.25.04-.49.17-.68.47-.33 1.35-.06 2.04-.17 1.1-.18 3.05.35 3.83.85l.17.26c.7.38 1.68.43 1.96 1.19.06.09.05.08.09.26 1.76-.03 3.21.19 4.69.51.81.18 2.09.16 2.98.43h1.02c1.02.23 2.51.26 3.49.6 1.42.09 2.84.17 4.26.26.51.12.86.46 1.28.6.51.16 1.12.16 1.53.26l2.39-.09.17.26c.46.21 1.48.07 1.96.17l2.81-.09c2.81.01 5.27-.5 7.67-1.11h1.19c.39-.09.9-.34 1.36-.26.3.06.8.26 1.19.17.47-.1 1.04-.31 1.53-.43l1.36-.09c.69-.27 1.73-.68 2.56-.77.68-.07 1.39.54 2.3.34l1.62-.34.17-.34 1.45-.43c.03-.2.04-.21.09-.34h.17c.07.39.15.35.6.34.47-.52 2.65-.99 3.58-1.19.17-.51.21-.63.94-.6.3.19.9-.02 1.19-.17.92-.48 1.81-1.07 2.9-1.45l.6-.09c.36-.18.67-.68 1.02-.85.4-.2.79 0 1.28-.17.27-.1 1.6-.97 1.87-1.19.66-.54 1.04-1.52 1.79-1.96.28-.16.59-.04.94-.17.32-.12.64-.58 1.02-.6.48-.02 1.28.19 1.79 0 .7-.27.89-.8 1.96-.85.66.62 1.35.93 1.36 2.21-.3.22-.21.82-.51 1.02-.18.13-.42.06-.6.17l-.51.51-.51.09c-.16.09-.29.42-.43.51-.28.19-.67.09-.94.26-.66.4-1.44 1.01-2.21 1.28l-.94.09c-.48.22-.98.76-1.45 1.02-.3.16-.55.1-.85.26-.25.13-.47.48-.68.6l-.77.17c-.44.19-1.35.59-1.79.85-.08.05-.19.3-.26.34l-1.02.17c-.13.05-.4.29-.51.34-.34.15-.59.04-.94.17-1.19.45-2.42 1.18-3.58 1.7-1.22.55-3.02.62-3.83 1.53-.26-.36-.76.09-1.19.09-1.17-.01-3.65.55-4.86.94l-1.28.09c-.39.1-.59.21-.85.34l-1.28-.09c-.09.02-.38.24-.43.26-.09.03-.53-.17-.77-.09-.81.31-1.91.6-2.81.85-1.25.35-1.75-.71-2.9-.43-.23.06-1.82.27-2.47.17-.22-.03-.52-.26-.94-.17-1.07.24-1.65.16-2.9.43-.42.09-.58-.14-.85-.09-.77.16-2.14.18-2.9 0-1.03-.25-1.83.19-2.64 0-.4-.1-1.17.12-1.19.09-.16-.18-.08-.23-.34-.34-.44-.39-1.06.03-1.7-.26-.86-.38-2.09-.32-3.24-.6h-1.87c-.59-.18-1.04-.3-1.7-.17v-.43c-1.12-.02-1.94-.39-2.81-.09-.49.17-1 .59-1.53.77-.14-.34-.28-.22-.34-.68-.32.03-.25.05-.43.17v-.26c-.84-.05-1.14-.12-1.79 0v.26h-.94c-.21.38-.44.66-1.02.68-.17.11-.81.14-1.02 0l-.09-.26c-.59-.39-1.64-.48-2.04-.77-.18-.18-.27-.47-.51-.6-.45-.27-.89.17-1.19.17-.89 0-1.77-.21-2.56-.51v-.26c-1.12-.05-2.3-1.38-3.24-1.11v-.26l-1.02-.34v-.26c-.55.02-2.02.55-2.73.34-.42-.13-.77-.29-1.19-.34-.06-.31 0-.23-.26-.34-.18-.11-.63-.15-1.02-.17v-.26c-.28-.19-.27-.31-.77-.34-.09-.06-.08-.05-.26-.09v-.43c-.44-.15-1.77-.71-1.87-1.11-.49-.06-.62-.23-1.19-.26v-.34c-1.26-.06-2.01-.62-3.15-.94l-.6.09-.6-.6-.77-.09v-.17l-.34-.09h-.68s-.28-.39-.34-.43l-.77-.17c-.09-.05-.33-.3-.43-.34-.31-.13-.52-.02-.77-.17-.22-.14-.45-.49-.68-.6h-.43c-.23-.12-.4-.52-.6-.68-.2-.16-.53-.15-.68-.34v-.34c-.16-.21-.63-.07-.77-.34-.12-.24-.1-.58-.17-.77-.82-.3-.96-.85-1.45-1.11l-.85-.17-.34-.43c-.2-.13-.43-.1-.6-.26-.06-.05-.12-.31-.17-.34h-.51c-.22-.11-.53-.48-.77-.6-.34-.17-.7-.08-1.02-.26-.34-.18-.23-.44-.77-.51v-.34c-2.09-1.12-3.8-1.91-5.28-3.66l-.34-.09c-.15-.11-1.48-1.27-1.53-1.36.05-.06.12 0 .09-.17h-.09c-.19-.18-.51-.31-.77-.43v-.26h-.34v-.26c-.46-.18-1.57-1.39-1.7-1.7h-.26c-.22-1.21-2.07-2.61-3.07-3.15-.42-.23-.09-.62-.77-.68v-.43c-.08-.03-1-.65-1.02-.68l-.09-.6-.34-.09.09-.43-.43-.26c-.21-.36.02-.49-.34-.68-.5-.34-1.22.09-1.62.17-.45-1-2.41-1.19-3.24-1.87h.26v-.34c-.85-.31-1.14-1.26-2.04-1.45l-.09-.85h-.34V201l-.09-.09c-.23 0-.39 0-.51-.09.21-.11.06.04.17-.17h-.09c-.23-.76-.93-.86-1.7-1.11v-.26c-.54-.05-.43-.27-.94-.34v-.26c-.54-.01-.52-.17-.94-.26-.03-.18-.02-.16-.09-.26v-.09h-.26v-.34c-.21-.11-.24-.15-.6-.17-.11-.67-.62-.84-.77-1.45h-.26c-.05-.66-1.09-2.1-1.7-2.13.04-.53.21-.42.26-.94h-.34l.09-.6c-.61-.27-.65-.71-1.02-1.19-.08-.11-.28-.12-.34-.26-.17-.38-.06-.61-.26-.94-.21-.35-.58-.63-.68-1.11-.18-.03-.16-.02-.26-.09.06-.09.05-.08.09-.26h-.51v-.09c.08-.08.11-.15.17-.26H28c-.04-.4-.12-.53-.51-.6-.07-.28-.83-1.7-1.02-1.87-.18-.17-.55-.23-.68-.43-.31-.45-.11-.81-.77-.94-.03-.37-.15-.86-.34-1.11v-.09h-.26c-.05-.32-.11-.28-.17-.6l-.51-.09v-.26h-.26v-.43l-.43-.09-.17-.6c-.41-.04-.41-.14-.85-.17l-.09-.94c-.85-.34-1.27-2.02-1.79-2.98.2-.14.2-.12.26-.43-.87-.64-.49-3.15-1.19-4.17-.77-.54-1.58-1.03-2.21-1.7h-.34l-.09-.51c-.37-.2-.49-.42-.94-.6v-.26h-.43c-.24-.73-.47-1.24-.77-1.62.19-.2.09-.03.09-.34-.16-.08-.22-.16-.34-.26v-.43h-.43v-.17c.2-.37-.15-.44-.26-.68-.17-.39.39-.63.17-1.11h-.17l-.09-.68-.34-.17c-.13-.21-.04-.49-.17-.68l-.6-.43v-.6c-.12-.2-.57-.31-.68-.51-.02-.03.15-.34.09-.51-.09-.25-.47-.54-.6-.77-.03-.05.17-.26.09-.43l-.43-.34.09-.09c-.05-.44-.28-.48-.34-.94l-.6-.09v-.17c.34-.52-.17-.91-.43-1.28.02-.06 0-.25 0-.51h-.51c-.07-.46-.93-2.11-1.45-2.21-.06-.65-.33-.92-.34-1.7h-.26c-.14-.23-.32-.41-.43-.68h.17l.09.09v-.85c-.38-.45-.09-.79-.17-1.36-.19-.09-.24-.06-.34-.26.57-.49-.45-4.33-.94-5.45h-.26c.12-.73.04-.76-.26-1.45v-.34l-.26-.09c-.26-.49-.06-1.13-.17-1.53-.02-.08-.22-.4-.26-.51-.17-.59.16-1.2-.17-1.7-.12-.09-.32-.18-.43-.26.2-.79-.03-1.95-.17-2.81l.09-.6c-.07-.19-.35-.21-.43-.34v-.43c-.03-.08-.24-.29-.26-.34-.23-.58.02-.96-.26-1.53-.2-.42-.59-.28-.68-.85.2-.03.21-.04.34-.09-.27-.71-.58-1.11-.6-2.13l-.51.09v-.34c.31-.32.3-1.14.09-1.7H.94c-.05-.07.3-.34.26-.6-.05-.33-.28-.68-.34-.94-.1-.44.04-1.68-.68-1.87-.11.21.04.06-.17.17v-.68c.43-.43-.11-1.01 0-1.7.03-.2-.12-1.09 0-1.53.19-.71.56-1.46.77-2.04.06-.18-.12-.26-.09-.34.15-.39.64-.46.85-.77 2.63-3.93 7.39-3 9.37.85.64 1.25.59 4.62.34 5.54-.16.58.38 1.12.17 1.53l-.26.09-.09.68c-.11.19-.56.31-.68.51-.14.24-.21.98-.26 1.19-.2.9.94 3.52 1.11 4 .17.49.03.81.6.94l.05.17Z" fill="#2C1910"/>
  </g>
</svg>