<?xml version="1.0" encoding="utf-8"?>
<svg xmlns="http://www.w3.org/2000/svg" xmlns:xlink="http://www.w3.org/1999/xlink" fill="none" height="263" width="352">
  <clipPath id="a">
    <path d="m0 0h352v262.77h-352z" transform="translate(0 .19)"/>
  </clipPath>
  <g clip-path="url(#a)" fill="#fff">
    <path d="m16.32 218.994c0-2.993-.74-5.202-2.223-6.643-1.483-1.44-3.65-2.167-6.503-2.167h-2.531v15.48c0 .196.055.364.14.489.097.14.265.238.489.322.238.084.545.14.965.168.405.042.923.056 1.538.056 1.497 0 2.755-.182 3.776-.532 1.021-.363 1.86-.867 2.503-1.538.644-.671 1.105-1.482 1.399-2.433.293-.951.433-2.014.433-3.202m3.063-.546a9.89 9.89 0 0 1 -.601 3.398 8.834 8.834 0 0 1 -1.804 3.035c-.811.909-1.818 1.622-3.049 2.181-1.23.546-2.671.825-4.321.825h-5.958c-.503 0-1.077.014-1.72.042a71.42 71.42 0 0 0 -1.86.098 2.232 2.232 0 0 1 -.056-.461c0-.266.112-.42.322-.462.713-.167 1.23-.335 1.538-.489s.461-.406.461-.755v-14.809c0-.392-.14-.657-.433-.811-.294-.154-.811-.294-1.566-.434a.36.36 0 0 1 -.252-.167c-.056-.084-.07-.21-.07-.322s.014-.266.056-.462c.406.042.755.07 1.063.07.293 0 .587.028.853.042s.545.028.797.028h6.797c1.636 0 3.062.252 4.293.755 1.23.504 2.252 1.189 3.077 2.042a8.312 8.312 0 0 1 1.832 2.993c.405 1.146.615 2.363.615 3.663m12.181-.237c1.357 0 2.406-.28 3.147-.853.741-.574 1.105-1.581 1.105-3.007 0-.601-.07-1.147-.238-1.664a3.487 3.487 0 0 0 -.741-1.314c-.336-.364-.783-.658-1.343-.867-.545-.21-1.23-.322-2.027-.322h-1.455v8.027zm.602 1.188h-2.154v6.405c0 .419.196.713.601.867.406.154 1.007.28 1.819.377.237.042.35.21.35.49 0 .14-.015.294-.057.489-.517-.042-1.16-.07-1.902-.098a58.54 58.54 0 0 0 -2.195-.042c-.504 0-1.091.014-1.749.042-.657.028-1.286.07-1.86.098a2.23 2.23 0 0 1 -.055-.461c0-.266.111-.42.321-.462.741-.111 1.259-.251 1.552-.419.294-.168.448-.448.448-.825v-14.809c0-.364-.14-.643-.42-.825s-.825-.322-1.636-.42c-.196-.014-.293-.181-.293-.489 0-.112.014-.28.055-.462.588.042 1.19.07 1.805.098s1.216.042 1.776.042h3.93c2.097 0 3.677.462 4.74 1.385s1.595 2.167 1.595 3.733c0 .434-.07.867-.224 1.343a5.183 5.183 0 0 1 -.672 1.37 5.697 5.697 0 0 1 -2.839 2.14l4.853 6.754c.364.503.77.853 1.217 1.049.448.196.867.335 1.245.433.167.042.265.168.265.406 0 .154-.014.321-.056.517-.447-.042-.992-.07-1.622-.098a40.907 40.907 0 0 0 -1.776-.042c-.405 0-.825-.167-1.23-.531a6.238 6.238 0 0 1 -1.175-1.342l-4.657-6.727zm14.486 6.952c0-.504.182-.951.532-1.329.363-.377.81-.559 1.356-.559.504 0 .937.196 1.287.559.35.378.517.825.517 1.329 0 .559-.168 1.021-.517 1.384a1.72 1.72 0 0 1 -1.287.545c-.545 0-.993-.181-1.356-.545-.364-.363-.532-.825-.532-1.384zm33.93 1.398c-.867.154-1.762.279-2.671.363-.91.084-1.972.126-3.203.126-1.664 0-3.118-.252-4.349-.755-1.23-.503-2.251-1.189-3.063-2.07a8.208 8.208 0 0 1 -1.818-3.104c-.405-1.189-.601-2.489-.601-3.887 0-1.161.196-2.322.601-3.482a9.315 9.315 0 0 1 1.804-3.147c.812-.937 1.818-1.692 3.035-2.279 1.217-.588 2.643-.881 4.28-.881.587 0 1.146.014 1.678.042.531.028 1.063.084 1.58.154s1.049.167 1.58.279c.532.112 1.105.238 1.734.392.042.685.112 1.384.224 2.111.112.728.252 1.441.42 2.14-.042.042-.112.07-.238.084-.112.014-.21.028-.294.028-.307 0-.503-.126-.587-.378-.35-1.3-.937-2.223-1.776-2.797-.84-.559-2.028-.839-3.58-.839-1.245 0-2.322.21-3.259.616-.937.405-1.706.965-2.307 1.678-.616.713-1.077 1.552-1.385 2.531s-.461 2.041-.461 3.188c0 1.343.195 2.573.601 3.692.392 1.119.937 2.097 1.622 2.909a7.15 7.15 0 0 0 2.448 1.887c.937.448 1.958.672 3.062.672.56 0 1.133-.042 1.706-.112a7.857 7.857 0 0 0 1.44-.294v-4.447c0-.517-.153-.881-.46-1.091-.308-.195-.84-.349-1.567-.447-.154-.014-.266-.084-.322-.21a.802.802 0 0 1 -.084-.349c0-.154.014-.308.056-.462.56.042 1.19.07 1.86.098a43.57 43.57 0 0 0 1.777.042c.503 0 1.076-.014 1.734-.042.643-.028 1.216-.07 1.706-.098.042.196.056.35.056.462 0 .195-.028.321-.098.391a.434.434 0 0 1 -.252.126c-.615.07-1.049.21-1.3.392-.238.181-.364.475-.364.853v5.174a.647.647 0 0 1 -.14.433c-.098.112-.364.21-.811.294m13.006-17.55v7.454h4.531c.392 0 .672-.196.825-.573.168-.378.294-.839.392-1.385.056-.252.238-.377.531-.377.056 0 .14 0 .238.028.098.014.168.042.238.055-.042.434-.07.909-.098 1.455a28.275 28.275 0 0 0 -.042 1.426c0 .322 0 .727.028 1.203.014.475.056 1.007.112 1.608a1.606 1.606 0 0 1 -.434.056c-.307 0-.49-.126-.559-.378-.098-.545-.224-1.007-.392-1.384-.167-.378-.447-.559-.825-.559h-4.53v6.866c0 .405.265.685.782.811.518.14 1.385.209 2.588.209h1.594c.56 0 1.049-.083 1.468-.251a3.83 3.83 0 0 0 1.105-.672 4.63 4.63 0 0 0 .853-1.006c.252-.392.49-.811.727-1.287.056-.14.21-.21.434-.21.098 0 .196.028.308.084.111.056.209.112.307.168a7.351 7.351 0 0 0 -.447 1.329c-.126.517-.252 1.006-.364 1.468a9.593 9.593 0 0 1 -.363 1.188c-.126.336-.28.49-.476.49-.154 0-.378 0-.671-.028a124.24 124.24 0 0 0 -.951-.042c-.336 0-.685-.028-1.035-.042s-.643-.028-.895-.028h-6.377c-.56 0-1.161 0-1.804.042-.644.028-1.245.056-1.832.098a2.245 2.245 0 0 1 -.056-.462c0-.265.098-.433.293-.461.742-.14 1.259-.28 1.58-.434.322-.153.476-.419.476-.811v-14.808c0-.392-.14-.658-.42-.798-.28-.139-.825-.293-1.636-.447-.195-.042-.293-.21-.293-.489 0-.098 0-.182.014-.252 0-.07.028-.14.042-.224.839.056 1.538.098 2.097.112.56.014 1.063.028 1.51.028h5.735c.867 0 1.636-.028 2.265-.084a18.528 18.528 0 0 1 1.273-.084c.251 0 .419.168.503.476.084.321.154.699.224 1.146.056.448.126.923.21 1.427a3.4 3.4 0 0 0 .433 1.286.877.877 0 0 1 -.517.168c-.252 0-.42-.084-.49-.266a17.658 17.658 0 0 0 -.671-1.3 3.083 3.083 0 0 0 -.741-.881 2.612 2.612 0 0 0 -1.021-.518c-.392-.112-.895-.167-1.468-.167h-4.308zm22.054 8.026c1.356 0 2.405-.28 3.146-.853.742-.574 1.105-1.581 1.105-3.007 0-.601-.084-1.147-.237-1.664a3.484 3.484 0 0 0 -.742-1.314c-.335-.364-.783-.658-1.342-.867-.56-.21-1.231-.322-2.028-.322h-1.454v8.027zm.615 1.188h-2.153v6.405c0 .419.195.713.601.867.405.154 1.007.28 1.818.377.238.042.35.21.35.49 0 .14-.014.294-.056.489a47.138 47.138 0 0 0 -1.902-.098 58.601 58.601 0 0 0 -2.196-.042c-.503 0-1.091.014-1.748.042s-1.287.07-1.86.098a2.23 2.23 0 0 1 -.056-.461c0-.266.112-.42.322-.462.741-.111 1.258-.251 1.552-.419s.447-.448.447-.825v-14.809c0-.364-.139-.643-.419-.825s-.825-.322-1.636-.42c-.196-.014-.294-.181-.294-.489 0-.112.014-.28.056-.462.587.042 1.189.07 1.804.098a39.43 39.43 0 0 0 1.776.042h3.93c2.098 0 3.678.462 4.741 1.385s1.594 2.167 1.594 3.733c0 .434-.07.867-.224 1.343a5.176 5.176 0 0 1 -.671 1.37 5.694 5.694 0 0 1 -2.839 2.14l4.853 6.754c.363.503.769.853 1.216 1.049.448.196.868.335 1.245.433.168.042.266.168.266.406 0 .154-.014.321-.056.517-.448-.042-.993-.07-1.622-.098a40.943 40.943 0 0 0 -1.776-.042c-.406 0-.826-.167-1.231-.531a6.236 6.236 0 0 1 -1.175-1.342l-4.657-6.727zm21.172-1.188c1.357 0 2.405-.28 3.147-.853.741-.574 1.104-1.581 1.104-3.007 0-.601-.07-1.147-.237-1.664a3.484 3.484 0 0 0 -.742-1.314c-.335-.364-.783-.658-1.342-.867-.559-.21-1.231-.322-2.028-.322h-1.454v8.027zm.615 1.188h-2.153v6.405c0 .419.195.713.601.867s1.007.28 1.818.377c.238.042.35.21.35.49 0 .14-.014.294-.056.489a47.138 47.138 0 0 0 -1.902-.098 58.56 58.56 0 0 0 -2.196-.042c-.503 0-1.091.014-1.748.042s-1.287.07-1.86.098a2.23 2.23 0 0 1 -.056-.461c0-.266.112-.42.322-.462.741-.111 1.258-.251 1.552-.419s.448-.448.448-.825v-14.809c0-.364-.14-.643-.42-.825s-.825-.322-1.636-.42c-.196-.014-.294-.181-.294-.489 0-.112.014-.28.056-.462.587.042 1.189.07 1.804.098a39.43 39.43 0 0 0 1.776.042h3.93c2.098 0 3.678.462 4.741 1.385s1.594 2.167 1.594 3.733c0 .434-.07.867-.224 1.343a5.146 5.146 0 0 1 -.671 1.37 5.694 5.694 0 0 1 -2.839 2.14l4.853 6.754c.364.503.769.853 1.217 1.049.447.196.867.335 1.244.433.168.042.266.168.266.406 0 .154-.014.321-.056.517-.447-.042-.993-.07-1.622-.098a40.943 40.943 0 0 0 -1.776-.042c-.406 0-.825-.167-1.231-.531a6.236 6.236 0 0 1 -1.175-1.342l-4.657-6.727zm18.965.126-4.852-8.726a1.93 1.93 0 0 0 -.728-.657c-.293-.154-.685-.252-1.188-.336-.098-.014-.168-.084-.224-.167a.865.865 0 0 1 -.07-.35v-.126s0-.098.028-.126c0-.056 0-.112.028-.168.419.042.965.07 1.622.098s1.301.042 1.916.042h.811c.308 0 .629-.014.965-.028.336 0 .643-.028.951-.042.294-.014.56-.042.769-.056 0 .084 0 .14.028.21 0 .056 0 .112.014.14 0 .042.014.084.014.112a.83.83 0 0 1 -.07.322.279.279 0 0 1 -.223.167c-.56.07-.951.168-1.175.28s-.336.252-.336.447c0 .154.07.336.21.546l3.608 6.516 3.398-6.055c.196-.349.294-.615.294-.811 0-.251-.126-.447-.392-.587-.265-.14-.671-.252-1.23-.35-.21-.014-.322-.181-.322-.489 0-.098 0-.182.028-.266 0-.056 0-.126.028-.21.42.042.923.07 1.496.098.574.028 1.105.042 1.581.042.447 0 .923 0 1.412-.042.49-.028.979-.07 1.469-.098 0 .084 0 .14.028.21 0 .056 0 .112.014.14 0 .042.014.084.014.112 0 .266-.112.433-.322.489-.685.098-1.161.224-1.44.364-.28.14-.518.391-.714.741l-4.713 8.348v6.517c0 .419.154.727.476.881.322.168.853.308 1.608.419.21.042.322.196.322.462 0 .042 0 .084-.014.14 0 .056-.014.112-.014.14-.014.083-.028.139-.028.167-.462-.014-.923-.042-1.371-.056-.391-.014-.797-.042-1.23-.055-.434-.014-.825-.028-1.147-.028s-.713 0-1.133.028c-.419.013-.839.041-1.217.055-.447.014-.895.042-1.342.056a.52.52 0 0 1 -.028-.167.414.414 0 0 1 -.028-.14v-.14c0-.266.098-.434.294-.462.755-.153 1.3-.307 1.636-.447.335-.154.489-.434.489-.853zm33.005 8.727c-1.636 0-3.049-.252-4.279-.755-1.217-.503-2.238-1.203-3.035-2.084a8.352 8.352 0 0 1 -1.804-3.118 12.253 12.253 0 0 1 -.601-3.859c0-1.147.195-2.294.601-3.469a9.634 9.634 0 0 1 1.804-3.16c.811-.937 1.818-1.706 3.035-2.293 1.216-.588 2.643-.881 4.279-.881.643 0 1.231.014 1.762.042a24.64 24.64 0 0 1 1.525.14c.489.07.965.153 1.426.265.462.112.951.224 1.454.364.014.531.084 1.161.21 1.916.112.755.266 1.524.462 2.293a.937.937 0 0 1 -.462.112 1.32 1.32 0 0 1 -.419-.056c-.126-.042-.21-.14-.252-.322-.35-1.286-.909-2.195-1.664-2.741-.755-.545-1.846-.811-3.287-.811-1.202 0-2.265.196-3.188.588a6.472 6.472 0 0 0 -2.322 1.636c-.629.699-1.105 1.538-1.426 2.517-.322.979-.476 2.07-.476 3.272 0 1.343.196 2.573.616 3.692.405 1.119.951 2.097 1.65 2.909a7.32 7.32 0 0 0 2.419 1.887 6.656 6.656 0 0 0 2.951.672c.839 0 1.538-.084 2.112-.252.573-.168 1.049-.406 1.426-.713.378-.308.699-.685.965-1.147.266-.461.504-.979.741-1.552.14-.294.364-.434.7-.434a1.241 1.241 0 0 1 .559.14 48.716 48.716 0 0 0 -.699 2.238 25.863 25.863 0 0 0 -.588 2.447c-.951.154-1.916.279-2.908.363-.993.084-2.07.126-3.259.126m30.205-7.396c0 1.105-.126 2.111-.378 3.006s-.671 1.678-1.273 2.336c-.587.657-1.37 1.174-2.335 1.524-.965.364-2.182.531-3.636.531-1.664 0-3.021-.209-4.042-.629-1.035-.419-1.818-.965-2.377-1.65a5.307 5.307 0 0 1 -1.105-2.335 13.242 13.242 0 0 1 -.28-2.685v-9.887c0-.391-.14-.671-.405-.839-.266-.168-.783-.307-1.539-.405-.195-.014-.293-.182-.293-.49 0-.112.014-.265.056-.461.587.042 1.174.07 1.79.098.615.028 1.202.042 1.762.042.503 0 1.091-.014 1.776-.042s1.314-.07 1.888-.098c.042.196.056.349.056.461 0 .308-.098.476-.294.49-.741.098-1.259.237-1.58.405-.322.168-.476.462-.476.839v9.244c0 2.013.406 3.565 1.203 4.642.811 1.077 2.168 1.608 4.084 1.608 1.09 0 1.999-.126 2.769-.363.755-.238 1.37-.616 1.86-1.119.489-.503.839-1.161 1.048-1.958.21-.811.322-1.776.322-2.894v-9.16c0-.391-.14-.671-.433-.839-.294-.168-.812-.307-1.567-.405-.209-.014-.321-.182-.321-.49 0-.112.014-.265.056-.461.559.042 1.104.07 1.636.098.531.028.993.042 1.384.042.462 0 .937-.014 1.413-.042.475-.028.951-.07 1.412-.098.042.196.056.349.056.461a.681.681 0 0 1 -.084.308.308.308 0 0 1 -.237.182c-.714.084-1.217.209-1.497.391s-.419.476-.419.853zm14.127-2.617c1.357 0 2.406-.28 3.147-.853.741-.574 1.105-1.581 1.105-3.007 0-.601-.07-1.147-.238-1.664a3.496 3.496 0 0 0 -.741-1.314c-.336-.364-.783-.658-1.343-.867-.559-.21-1.23-.322-2.028-.322h-1.454v8.027zm.616 1.188h-2.154v6.405c0 .419.196.713.601.867.406.154 1.007.28 1.818.377.238.042.35.21.35.49 0 .14-.014.294-.056.489a47.04 47.04 0 0 0 -1.902-.098 58.52 58.52 0 0 0 -2.196-.042c-.503 0-1.09.014-1.748.042-.657.028-1.286.07-1.86.098a2.23 2.23 0 0 1 -.056-.461c0-.266.112-.42.322-.462.741-.111 1.259-.251 1.552-.419.294-.168.448-.448.448-.825v-14.809c0-.364-.14-.643-.42-.825-.279-.182-.825-.322-1.636-.42-.196-.014-.294-.181-.294-.489 0-.112.014-.28.056-.462.588.042 1.175.07 1.804.098.616.028 1.217.042 1.777.042h3.929c2.098 0 3.678.462 4.741 1.385s1.594 2.167 1.594 3.733c0 .434-.069.867-.223 1.343a5.18 5.18 0 0 1 -.672 1.37 5.628 5.628 0 0 1 -1.16 1.231 5.7 5.7 0 0 1 -1.679.909l4.853 6.754c.364.503.769.853 1.217 1.049.447.196.867.335 1.245.433.167.042.265.168.265.406 0 .154-.014.321-.056.517-.447-.042-.993-.07-1.622-.098a40.906 40.906 0 0 0 -1.776-.042c-.406 0-.825-.167-1.231-.531a6.233 6.233 0 0 1 -1.174-1.342l-4.657-6.727zm25.212.379-2.699-7.132-2.825 7.132zm.476 1.202h-6.489l-1.86 4.685c-.098.238-.14.419-.14.587 0 .406.587.699 1.776.867.14.014.224.07.28.154.042.084.07.182.07.308 0 .125-.014.265-.056.461a53.789 53.789 0 0 0 -1.664-.098 36.174 36.174 0 0 0 -1.721-.042c-.391 0-.783 0-1.188.028-.406.014-.839.056-1.273.112a1.737 1.737 0 0 1 -.056-.461c0-.14.028-.252.07-.35s.154-.154.308-.168c.601-.098 1.049-.224 1.356-.363.308-.14.518-.378.658-.686l7.006-16.878c.14-.336.322-.49.545-.49.084 0 .196.014.35.056l7.034 17.396c.112.28.378.49.784.644.405.153.811.265 1.188.321.112.042.21.098.28.154.07.07.098.196.098.364 0 .111-.014.265-.056.461-.615-.042-1.231-.07-1.832-.098a36.34 36.34 0 0 0 -1.692-.042c-.532 0-1.161.014-1.86.042-.7.028-1.329.056-1.888.098a2.245 2.245 0 0 1 -.056-.461c0-.168.042-.294.098-.364.07-.07.126-.098.196-.098.503-.098.909-.21 1.216-.335.308-.126.462-.322.462-.56 0-.112-.042-.266-.112-.433l-1.832-4.797zm19.019-10.795v15.536c0 .447.182.755.546.951.363.182.993.321 1.86.419.209 0 .321.154.321.462 0 .14-.014.293-.056.489a73.025 73.025 0 0 0 -1.958-.098 51.173 51.173 0 0 0 -2.083-.042c-.7 0-1.371 0-2.084.042-.713.028-1.371.056-1.986.098a2.368 2.368 0 0 1 -.056-.489c0-.266.098-.434.294-.462.867-.112 1.496-.265 1.888-.433.391-.168.587-.49.587-.937v-15.536h-2.993c-.587 0-1.076.056-1.468.168a3.124 3.124 0 0 0 -1.035.517 3.167 3.167 0 0 0 -.755.895c-.21.364-.434.797-.671 1.287a.363.363 0 0 1 -.196.209.55.55 0 0 1 -.252.056.974.974 0 0 1 -.559-.168c.195-.699.335-1.314.433-1.859.098-.546.182-.993.266-1.357.084-.363.154-.629.252-.825.084-.196.223-.294.419-.294.14 0 .322 0 .588.028.251.014.517.042.797.056.279.014.573.042.853.056.293.014.559.028.811.028h9.719c.238 0 .49 0 .784-.028.293-.014.587-.042.867-.056.279-.014.559-.042.797-.056s.447-.028.601-.028c.196 0 .336.098.42.308.084.196.168.49.251.853.07.364.154.825.252 1.371.084.545.238 1.146.448 1.803-.098.042-.196.07-.28.112a.712.712 0 0 1 -.308.056.689.689 0 0 1 -.265-.056.325.325 0 0 1 -.196-.209c-.21-.49-.434-.909-.644-1.287a3.148 3.148 0 0 0 -.741-.895 2.6 2.6 0 0 0 -1.021-.517c-.391-.112-.881-.168-1.468-.168h-2.993zm21.384 16.668c.909 0 1.748-.167 2.504-.517a5.872 5.872 0 0 0 1.943-1.454c.546-.616.965-1.357 1.259-2.21a8.49 8.49 0 0 0 .448-2.796c0-1.399-.14-2.699-.434-3.888s-.741-2.237-1.329-3.118a6.495 6.495 0 0 0 -2.237-2.084c-.909-.503-1.958-.755-3.161-.755a6.03 6.03 0 0 0 -2.279.447 5.66 5.66 0 0 0 -1.916 1.315 6.546 6.546 0 0 0 -1.329 2.111c-.335.839-.489 1.79-.489 2.881 0 1.44.154 2.769.461 3.999.308 1.231.755 2.294 1.357 3.203.587.895 1.328 1.608 2.195 2.111.868.504 1.874.755 2.993.755m-9.999-8.404c0-1.342.238-2.601.727-3.775a10.39 10.39 0 0 1 1.972-3.119 9.509 9.509 0 0 1 2.909-2.125 8.13 8.13 0 0 1 3.496-.784c1.692 0 3.161.266 4.419.798 1.259.531 2.308 1.244 3.133 2.153a8.738 8.738 0 0 1 1.846 3.132c.406 1.189.615 2.42.615 3.72 0 1.538-.251 2.909-.755 4.111a8.818 8.818 0 0 1 -5.202 5.007 10.762 10.762 0 0 1 -3.818.671c-1.357 0-2.643-.238-3.776-.699a8.46 8.46 0 0 1 -2.951-1.986 9.019 9.019 0 0 1 -1.916-3.104c-.461-1.203-.685-2.546-.685-4.014m28.347 7.369c0 .336.14.56.434.699.294.14.685.21 1.189.21h3.174c.56 0 1.049-.07 1.455-.224a2.834 2.834 0 0 0 1.049-.629c.293-.266.545-.601.769-1.007.223-.391.419-.853.601-1.356.056-.154.168-.238.35-.238.098 0 .195.028.307.07.112.056.224.098.336.168-.14.587-.266 1.202-.392 1.846a32.844 32.844 0 0 0 -.335 2.195c-.014.21-.07.35-.168.406a.682.682 0 0 1 -.35.084c-.335 0-.741-.028-1.23-.07-.49-.042-.923-.07-1.287-.07h-7.272c-.448 0-1.007.014-1.692.042-.686.028-1.329.056-1.944.098a2.245 2.245 0 0 1 -.056-.462c0-.266.098-.419.294-.461.797-.14 1.342-.28 1.622-.448.293-.168.433-.419.433-.769v-14.837c0-.391-.14-.671-.405-.825-.28-.168-.797-.307-1.567-.419-.097-.014-.167-.07-.223-.168a.667.667 0 0 1 -.07-.308c0-.14.014-.293.056-.489.657.042 1.314.07 1.944.098a37.94 37.94 0 0 0 1.622.042c.657 0 1.356-.014 2.098-.042.741-.028 1.398-.07 1.971-.098.042.196.056.349.056.461 0 .336-.111.504-.321.518-.839.098-1.455.237-1.846.419-.392.182-.602.518-.602 1.007v14.557zm24.725-6.026-2.699-7.132-2.825 7.132zm.475 1.202h-6.489l-1.86 4.685c-.098.238-.14.419-.14.587 0 .406.588.699 1.777.867.139.014.223.07.279.154.042.084.07.182.07.308 0 .125-.014.265-.056.461a51.148 51.148 0 0 0 -3.384-.14c-.392 0-.783 0-1.189.028-.405.014-.839.056-1.286.112a1.737 1.737 0 0 1 -.056-.461c0-.14.028-.252.07-.35.041-.098.153-.154.307-.168.602-.098 1.049-.224 1.357-.363.307-.14.517-.378.657-.686l7.006-16.878c.14-.336.322-.49.56-.49.07 0 .196.014.349.056l7.035 17.396c.112.28.377.49.783.644.406.153.811.265 1.189.321.112.042.21.098.279.154.07.07.098.196.098.364 0 .111-.014.265-.056.461-.615-.042-1.23-.07-1.832-.098a36.306 36.306 0 0 0 -1.692-.042c-.531 0-1.161.014-1.86.042s-1.328.056-1.888.098a2.245 2.245 0 0 1 -.056-.461c0-.168.028-.294.098-.364s.126-.098.196-.098c.503-.098.909-.21 1.217-.335.307-.126.461-.322.461-.56 0-.112-.042-.266-.112-.433l-1.832-4.797zm-63.322 33.476v-1.412l-.14-.14h-.993l-.279.14-2.266 3.817h-.279l-2.266-3.817-.28-.14h-.993l-.14.14v1.412l2.839 4.671v3.538l.14.139h1.706l.14-.139v-3.538l2.825-4.671zm-11.565 2.042a.94.94 0 0 1 -.294.391c-.126.098-.28.168-.447.21a2.42 2.42 0 0 1 -.574.056h-2.685l-.14-.14v-2.265l.14-.14h2.685c.42 0 .769.084 1.021.266.266.181.392.517.392 1.006 0 .252-.028.448-.098.616zm1.818-1.916a2.627 2.627 0 0 0 -.699-.937c-.294-.252-.658-.434-1.077-.559a4.775 4.775 0 0 0 -1.371-.182h-4.671l-.14.14v9.635l.14.139h1.706l.14-.139v-3.678l.14-.14h1.413l.279.14 2.825 3.678.28.139h.853l.14-.139v-1.413l-1.846-2.405v-.14c.279-.07.545-.182.811-.336.252-.153.489-.363.685-.601s.35-.517.476-.839a3.19 3.19 0 0 0 .167-1.063c0-.489-.083-.923-.251-1.3zm-10.223-.126v-1.412l-.14-.14h-7.929l-.14.14v1.412l.14.14h2.824l.14.14v7.929l.14.139h1.706l.14-.139v-7.929l.14-.14h2.839zm-10.041 4.237a2.52 2.52 0 0 0 -.756-.909 3.54 3.54 0 0 0 -1.118-.587 10.02 10.02 0 0 0 -1.385-.336c-.503-.07-.909-.14-1.245-.223-.321-.084-.587-.168-.783-.28-.195-.098-.335-.224-.405-.378-.084-.14-.126-.321-.126-.545 0-.14.028-.28.084-.392a.734.734 0 0 1 .28-.307c.125-.084.307-.154.531-.21.21-.056.489-.084.811-.084.392 0 .713.028.965.084s.462.126.615.238a.906.906 0 0 1 .322.405c.056.168.098.35.098.56l.14.139h1.706l.14-.139c0-.42-.07-.825-.224-1.189a2.273 2.273 0 0 0 -.685-.937c-.308-.266-.713-.475-1.189-.629-.475-.154-1.063-.224-1.72-.224s-1.245.07-1.72.224c-.49.154-.881.349-1.189.601s-.545.531-.685.867c-.14.322-.224.657-.224 1.007 0 .503.098.923.28 1.272.182.35.433.63.755.853.322.224.685.406 1.119.546.433.14.895.238 1.398.307.49.07.909.154 1.231.224.335.07.587.168.783.28s.336.252.406.419c.083.168.125.378.125.63 0 .419-.167.741-.503.951-.336.209-.825.321-1.468.321-.854 0-1.441-.14-1.763-.405-.335-.266-.503-.658-.503-1.147l-.14-.14h-1.706l-.14.14c0 .461.084.895.238 1.286.154.392.405.742.755 1.035.336.294.769.518 1.287.685.517.168 1.118.252 1.832.252.741 0 1.384-.084 1.902-.252a4.002 4.002 0 0 0 1.272-.657c.322-.279.56-.587.714-.951.153-.363.223-.727.223-1.118 0-.49-.098-.923-.279-1.287m-10.545 3.972v-9.635l-.14-.14h-1.692l-.14.14v9.635l.14.139h1.692zm-4.251-8.209v-1.412l-.14-.14h-7.93l-.14.14v1.412l.14.14h2.839l.14.14v7.929l.14.139h1.706l.14-.139v-7.929l.14-.14h2.825zm-18.824-1.412v9.635l.14.139h1.692l.14-.139v-6.517h.14l3.817 6.517.28.139h1.986l.14-.139v-9.635l-.14-.14h-1.706l-.14.14v6.516h-.14l-3.818-6.516-.279-.14h-1.986l-.14.14zm-2.839 9.621v-1.413l-.14-.14h-4.671l-.14-.139v-2.266l.14-.14h4.391l.14-.14v-1.412l-.14-.14h-4.391l-.14-.14v-1.985l.14-.14h4.671l.14-.14v-1.412l-.14-.14h-6.657l-.14.14v9.635l.14.139h6.657l.14-.139zm-12.069-2.336c-.406.518-1.091.783-2.084.783h-1.272l-.14-.139v-6.237l.14-.14h1.272c.993 0 1.692.266 2.084.783.406.517.601 1.342.601 2.475s-.195 1.958-.601 2.475zm2.335-4.558a3.753 3.753 0 0 0 -.825-1.553 3.724 3.724 0 0 0 -1.482-.979c-.615-.223-1.357-.335-2.238-.335h-3.118l-.14.14v9.635l.14.139h3.118c.881 0 1.637-.111 2.238-.335s1.105-.546 1.482-.965c.378-.42.658-.951.825-1.552.168-.616.252-1.315.252-2.098s-.084-1.468-.252-2.084m-23.816-2.74v9.635l.14.139h1.692l.14-.139v-6.517h.14l3.818 6.517.279.139h1.986l.14-.139v-9.635l-.14-.14h-1.706l-.14.14v6.516h-.14l-3.817-6.516-.28-.14h-1.986l-.14.14zm-2.881 2.754a4.704 4.704 0 0 0 -.951-1.608 4.247 4.247 0 0 0 -1.51-1.048c-.601-.252-1.259-.378-2.014-.378s-1.412.126-2.014.378a4.302 4.302 0 0 0 -1.51 1.048c-.42.448-.727.993-.951 1.608a6.037 6.037 0 0 0 -.336 2.056c0 .755.112 1.426.336 2.056a4.72 4.72 0 0 0 .951 1.608c.419.447.923.811 1.51 1.063.602.251 1.273.377 2.014.377s1.413-.126 2.014-.377a4.058 4.058 0 0 0 1.51-1.063c.42-.448.742-.993.951-1.608.224-.63.336-1.301.336-2.056s-.112-1.426-.336-2.056zm-1.846 3.427a3.047 3.047 0 0 1 -.545 1.062 2.534 2.534 0 0 1 -.881.699c-.35.168-.755.252-1.217.252-.461 0-.867-.084-1.217-.252a2.534 2.534 0 0 1 -.881-.699 3.194 3.194 0 0 1 -.545-1.062 4.709 4.709 0 0 1 -.182-1.371c0-.503.056-.951.182-1.37a3.14 3.14 0 0 1 .545-1.077c.238-.294.532-.531.881-.699.35-.168.756-.252 1.217-.252.462 0 .867.084 1.217.252.349.168.643.405.881.699s.419.657.545 1.077c.126.419.182.881.182 1.37 0 .49-.056.951-.182 1.371zm-9.999 3.44v-9.635l-.14-.14h-1.706l-.14.14v9.635l.14.139h1.706zm-4.251-8.209v-1.412l-.14-.14h-7.93l-.139.14v1.412l.139.14h2.825l.14.14v7.929l.14.139h1.706l.14-.139v-7.929l.14-.14h2.839zm-11.762 4.391-.14.14h-2.405l-.14-.14 1.273-3.398h.14zm2.979 3.818v-1.413l-3.258-8.208-.14-.14h-1.846l-.14.14-3.259 8.208v1.413l.14.139h1.273l.14-.139.713-1.846.28-.14h3.538l.28.14.713 1.846.14.139h1.272l.14-.139zm-19.257-9.621v9.635l.14.139h1.692l.14-.139v-6.517h.14l3.818 6.517.279.139h1.986l.14-.139v-9.635l-.14-.14h-1.706l-.14.14v6.516h-.14l-3.818-6.516-.279-.14h-1.986l-.14.14zm-2.825 9.621v-1.413l-.14-.14h-4.671l-.14-.139v-2.266l.14-.14h4.391l.14-.14v-1.412l-.14-.14h-4.391l-.14-.14v-1.985l.14-.14h4.671l.14-.14v-1.412l-.14-.14h-6.657l-.14.14v9.635l.14.139h6.657l.14-.139zm-9.356-8.209v-1.412l-.14-.14h-1.272l-.14.14-2.546 6.936h-.139l-2.546-6.936-.139-.14h-1.273l-.14.14v1.412l3.119 8.209.14.139h1.846l.139-.139 3.119-8.209zm-10.754-1.412-.14-.14h-1.706l-.14.14v5.943c0 .713-.154 1.258-.462 1.664-.307.405-.811.601-1.524.601s-1.217-.196-1.524-.601c-.308-.406-.462-.951-.462-1.664v-5.943l-.14-.14h-1.692l-.14.14v5.943c0 1.286.336 2.265 1.021 2.95.685.686 1.664 1.021 2.951 1.021s2.266-.335 2.951-1.021c.685-.685 1.021-1.664 1.021-2.95v-5.943zm-11.048 0-.14-.14h-1.706l-.14.14v6.796c0 .279-.028.517-.098.699s-.154.322-.266.434a1.056 1.056 0 0 1 -.405.223c-.154.042-.322.07-.504.07-.42 0-.727-.126-.88-.363-.169-.252-.253-.546-.253-.909v-.14l-.14-.14h-1.705l-.14.14v.14c0 .363.056.713.168 1.062.112.35.294.672.546.951.237.28.56.518.965.686.391.167.88.265 1.44.265.993 0 1.776-.265 2.378-.783.601-.517.881-1.342.881-2.475v-6.656zm-8.35 9.621v-1.413l-.14-.14h-4.67l-.14-.139v-2.266l.14-.14h4.391l.14-.14v-1.412l-.14-.14h-4.391l-.14-.14v-1.985l.14-.14h4.67l.14-.14v-1.412l-.14-.14h-6.656l-.14.14v9.635l.14.139h6.657l.14-.139v-.028zm-11.565-6.167a.94.94 0 0 1 -.294.391 1.2 1.2 0 0 1 -.447.21 2.414 2.414 0 0 1 -.573.056h-2.686l-.14-.14v-2.265l.14-.14h2.686c.42 0 .769.084 1.02.266.266.181.392.517.392 1.006 0 .252-.028.448-.098.616zm1.818-1.916a2.617 2.617 0 0 0 -.7-.937c-.293-.252-.656-.434-1.076-.559a4.773 4.773 0 0 0 -1.37-.182h-4.671l-.14.14v9.635l.14.139h1.692l.14-.139v-3.678l.14-.14h1.412l.28.14 2.825 3.678.28.139h.852l.14-.139v-1.413l-1.846-2.405v-.14c.28-.07.546-.182.811-.336.252-.153.476-.363.686-.601a2.7 2.7 0 0 0 .461-.839c.112-.321.168-.671.168-1.063a3.17 3.17 0 0 0 -.252-1.3"/>
    <g clip-rule="evenodd" fill-rule="evenodd">
      <path d="m201.745 10.104v-.223c-.839 0-1.692.084-2.447-.168-.503-.168-.923-.63-1.426-.741v-.168c-.252-.154-.308-.28-.741-.28-.252.154-.644-.084-.798-.223v-.112l-.741.056v-.168l-.461.056v-.224c-.126-.07-.126-.098-.336-.112-.056-.028-1.119-.224-1.371-.224v-.167c-.307-.196-.363-.35-.909-.336-.853.7-2.349-.14-2.852-.685l-.336.056v-.224c-.182-.056-.168-.084-.392-.112-.279.182-.839-.056-1.188.056-.28.098-.728.35-1.077.392l-.853-.112c-.867-.042-1.846.126-2.615-.056-1.231-.294-2.238-.588-3.525-.853.126-.14.154-.112.168-.392-.154-.056-.196-.126-.28-.223-.237.083-.223.223-.517.28v.167c-.196.042-.378.112-.461.28-.084.14-.028.237 0 .391h-.63c-.21.168-1.818-.098-2.335.056-.532.168-1.427.252-2.056.392h-.853c-.252.07-.49.251-.797.28h-.965c-.098.041-.224.251-.462.167l-.168-.168h-.741c-.307-.084-.419-.265-.853-.28-.615.602-1.916.994-3.132.686-.364-.098-.63-.266-1.077-.28v-.168c-.825 0-.979.434-1.539.63-.643.223-1.3.07-1.874.056v-.168c-.209-.126-.293-.35-.517-.462-.224.154-.378.084-.462.392-.391.084-.657.433-1.02.573-.532.196-1.203-.126-1.539 0-.238.084-.475.35-.797.392-.811.126-1.762-.741-2.224-.462-.279.098-.405.42-.685.518l-.573.056c-.28.126-.643.321-.965.461v.168c.126.014.14.028.224.056v.056h-.336c-.07-.196-.084-.168-.336-.168-.251.308-.783.615-1.132.797-.266.14-.546.084-.798.224-.139.084-.573.531-.741.685l-.056.168h-.223c-.364.168-.868.49-1.259.63-.42.139-.601-.225-.965-.113-.238.07-.392.336-.573.462-.294.181-.658.154-.965.335-.294.168-.49.504-.798.685-.237.14-.601.28-.853.336-.433.112-.671-.112-1.076 0-.364.098-.868.77-1.483.518-.168-.07-.154-.196-.461-.224-.602.95-.923 2.125-2.504 2.111-.126-.126-.279-.28-.461-.335-.406.335-.825.74-1.259 1.02-.21.14-.433.182-.629.336-.182.154-.322.434-.518.573l-.853.336a23.082 23.082 0 0 0 -2.727 1.986c-.363.308-.895.294-1.314.573-.672.448-1.049 1.343-1.706 1.818-.35.252-1.007.14-1.371.392-.168.125-.196.42-.336.573-.125.14-.335.196-.461.336-.294.35-.587.769-1.021.965-.322.14-.741-.168-1.021 0-.154.083-.391.978-.517 1.188-.238.462-1.035.434-1.259.685-.21.252-.182.532-.336.853-.307.63-.881 1.119-1.258 1.706l-.168.518s-.559.503-.573.517l-.686.112c-.307.713-.853 1.398-1.37 1.93l-.168.056c-.21.28-.252.629-.462.909-.111.154-.335.251-.461.391-.364.434-.587.895-.909 1.37-.21.308-.713.322-.909.63-.294.42-.308.993-.629 1.37-.378.434-.672.881-1.021 1.37l-.28.28c-.168.392-.14.742-.28 1.133-.265.727-.923 1.86-1.37 2.447-.154.196-.811.741-1.021.853l-.574.056-.167.28c-.518.42-1.063.615-1.427 1.188-.335.546-.531 1.217-.685 1.93-.098.462.168 1.105-.056 1.65-.042.126-.238.322-.28.462l-.112.573c-.111.21-.405.406-.517.63-.14.28-.098.503-.224.797-.126.293-.377.699-.517.964-.112.21-.056.448-.168.63-.336.531-.811 1.104-1.021 1.762-.042.14.056.21.056.28 0 .279-.336 1.845-.461 2.11-.196.42-.504.882-.742 1.26l-.223.629c-.266.42-.658.74-.854 1.258-.237.616-.251 1.217-.517 1.818-.126.266-.406.573-.517.853l-.224 1.482c-.238.588-.685.993-.853 1.65-.084.308-.252 1.469-.224 1.707.014.223.098.475.056.74-.182.98-.196 1.875-.336 2.728-.112.67.364 1.356.28 1.817-.056.336-.42.518-.517.798-.112.363.097.517 0 .853-.042.126-.196.321-.224.461l.056.741-.168.573c-.196.098-.951.308-1.315.056a.91.91 0 0 1 -.461-.391c-.476-.657.336-1.916.056-2.727.182-.042.084.028.168-.112-.154-.391.363-1.286.28-1.874-.14-1.048.377-2.041.629-2.908.237-.811 0-1.552.223-2.336.238-.783.644-1.496.965-2.223.21-.475.126-.909.28-1.426.224-.741.671-1.539.853-2.336.084-.391-.266-.49-.168-.909.154-.699.14-1.272.392-1.93.196-.503.643-1.328 1.077-1.593.279-.168.755-.224.909-.518l.168-.797c.069-.154.279-.294.335-.462.168-.447.042-.894.224-1.314.168-.378.35-.965.517-1.37v-.28c.056-.112.238-.322.28-.461l-.056-.224.168-.056c.07-.112.042-.154 0-.224.126-.182.35-.377.461-.573.182-.336.168-.741.336-1.077.14-.266.406-.671.518-.965v-.335c.153-.322.573-.56.741-.853.21-.35.182-.798.391-1.133.294-.476.63-1.007.965-1.483.238-.335.686-.559.909-.908.168-.252.042-.518.168-.854.168-.419.573-.769.741-1.132l.056-.518c.056-.167.224-.447.336-.629.126-.182.951-1.272 1.077-1.37.028-.028.126.07.223 0l.518-.518c.392-.517.643-1.076 1.021-1.594l.461-.391c.112-.154.14-.322.28-.462l.224-.112c.196-.237.238-.517.391-.797.462-.783 1.161-1.692 1.707-2.447.363-.503 1.09-.979 1.426-1.482.182-.28.266-.588.517-.797.154-.126.35-.112.462-.28.391-.643.657-1.384 1.077-1.986l.629-.629c.182-.28.266-.545.462-.797l.391-.336c.266-.391.504-.895.853-1.188.644-.546 1.301-1.021 1.986-1.538.21-.154.364-.462.573-.63.126-.098.294-.112.392-.224l.056-.167c.14-.126.406-.126.573-.224l.392-.392c.238-.167.503-.223.741-.391.35-.252.574-.713.909-.965.532-.406 1.147-.685 1.706-1.077.63-.447 1.231-1.049 1.874-1.482l.518-.168c.335-.182.713-.475 1.021-.685.349-.224.713-.252 1.076-.462.168-.098.378-.405.518-.517l.573-.168c.238-.154.49-.42.741-.573l.742-.168c.433-.196.853-.601 1.314-.797.672-.294 1.357-.392 1.986-.741l.392-.392c.279-.181.965-.447 1.258-.573.448-.196 1.119-.308 1.483-.573l.168-.28c.209-.112.531-.056.741-.168.727-.42 1.398-1.02 2.223-1.37.364-.154.784-.028 1.189-.168.126-.042.266-.238.392-.28.391-.154.671-.154 1.021-.335.447-.224 1.3-.728 1.65-1.077.224-.224.293-.63.573-.797.629-.364 1.371-.434 2.056-.741.224-.098.447-.364.685-.462l.574-.056c.489-.154 1.202-.433 1.706-.63h.685c.559-.139 1.44-.041 1.874-.11.238-.043.643-.21.853-.28.545-.182 1.189-.07 1.706-.28.028-.014.168-.154.224-.168l.392.056c.307-.056.727-.392 1.02-.518.392-.167.742-.125 1.133-.28.252-.097.546-.349.797-.46.308-.127.756-.182 1.021-.28l1.595.056a63.948 63.948 0 0 1 4.097-.853c.727-.126 2.14.251 2.965.055 1.203-.28 2.629-.223 3.818.056.811.196 2.405-.07 3.076-.223.406-.098.923.056 1.189.112.462.111 1.049-.168 1.371-.224.168-.042.713.07 1.021 0 .391-.084.657.224 1.132.112.406-.084 1.245-.294 1.874-.112 1.105.307 2.252.615 3.245.965.377.14.811.14 1.133.223h.741c.224.07.615.322.853.392.196.07.517-.042.629-.056s.322.098.392.112c.727.182 1.762.014 2.223-.112.714-.21 3.203.056 3.581.224.363.377.825.475 1.314.74l.224.225h.797c.21.056.503.126.741.223.518.224 1.175.532 1.65.853l.28.28h.629c.224.056.462.224.686.28h.461c.588.168 1.133.545 1.65.797.336.154.63.042 1.021.168.686.223 1.72.727 2.28 1.132l.741.965c.532.392 1.371 1.23 1.594 1.874.21.615 0 1.259 0 1.986.42.223.909.307.965.909.294.447-.14 2.195-.279 2.447-.084.14-.336.391-.518.461-.391.322-1.342-.056-1.538-.167-.308-.252-.196-.756-.574-.965-.503-.364-1.286-.098-1.874-.112-.181 0-.559-.112-.797-.168l-1.426-.056c-.42-.112-.923-.28-1.259-.517l-.573-.685c-.196-.126-.518.027-.741-.112l-.056-.168-.518-.168c-.196-.098-.881-.727-.965-.909-.112-.224.056-.266 0-.461-.028-.098-.167-.224-.223-.336-1.161 0-1.972-.42-2.909-.461l.181-.028z"/>
      <path d="m179.664 5.84.168.056v.056h-.168zm70.875 42.971c.07.392.349.476.517.742.182.293.112.573.336.797v.056c.405.307.909.265 1.189.685.447.573-.28 1.146-.336 1.65.252.224.196.811.336 1.133.14.307.503.475.685.74.14.21.056.448.168.686.098.182.433.378.517.573l.112 1.259s-.126.098-.112.224c.042.489.49.95.797 1.188 0 .252-.014.448-.056.63-.461.265-.825.28-.797 1.076.294.49.252 1.538.462 2.168.321.965.545 2.181.797 3.244v1.482c.21.895.405 1.86.629 2.853v3.02l-.056.63c.56 1.874.168 4-.112 5.97l.056.057c.182 0 .084-.028.224 0 .042.126.056.307.056.517.07.154-.14.196-.056.392h.112c.224.545.028 1.105 0 1.706h.112v.056l.112-.056v.056c.531.797.545 3.943.223 5.062-.139.49-.629.993-.461 1.706.196.825.503 2.629.168 3.761-.238.77-.699 1.609-.965 2.336-.112.294-.014.531-.112.853-.056.196-.266.447-.336.63v.279l-.279.224v.223c-.14.196-.448.392-.574.63l-.056.391c-.489 1.035-.783 2.559-1.132 3.706l-.112 2.167c-.084.28-.35.49-.462.741v.28c-.196.504-.573 1.133-.797 1.65-.322.741-.308 1.566-.629 2.336-.126.307-.588.95-.63 1.188l.168.056s-.307 1.189-.335 1.259l-.28.223s.084.112.056.224c-.154.546-.266 1.161-.392 1.65v.797c-.014.42-.056 1.077-.224 1.427-.028.07-.195.223-.223.279l-.056.462c-.532.713-1.525 1.049-2.056 1.762-.266.349-.517.713-.741 1.077l-.168.517c-.406.573-.881 1.147-1.315 1.706-.321.433-1.076.573-1.37 1.021-.196.321-.252.713-.462 1.021-.167.265-.475.559-.629.853-.098.195-.21.559-.112.741l-.168.112c-.307.587-.391 1.216-.741 1.762-.056.097-.294.167-.336.279-.055.112 0 .266-.055.336-.112-.098-.042-.112-.168-.056-.546.238-1.035 1.3-1.371 1.818-.252.391-.587.699-.909 1.021l-.056.167h-.224c-.111.056-.377.294-.461.392-.238.35-.392.783-.629 1.133-.28.433-1.049.769-1.371 1.188-.699.965-1.552 1.497-2.559 2.168-.322.21-.713.923-.965 1.258a9.54 9.54 0 0 1 -1.189 1.189c-.14.112-.349.154-.461.28-.504.587-.853 1.3-1.315 1.929-.238.336-.699.546-1.021.798-.182.139-.182.447-.391.573-.084-.056-.238-.056-.392-.056-.238.336-.517.391-.853.629-.364.252-.671.643-.965.965-.252.266-.531.098-.573.629h-.28v.168c-.503.07-1.846.895-1.93 1.371l.112.111c-.531.042-.615.462-.853.798-.378.517-1.063.797-1.427 1.37.532 0 .364.056.798.168v.056c-.224.056-.252.181-.336.335l-.28-.056v-.279c-.154-.084-.238-.14-.461-.168a1.266 1.266 0 0 0 -.224.573c-.112-.112-.112-.168-.28-.224-.293.392-.937.476-1.258.854-.112.153-.112.419-.224.573-.07-.042-.098-.042-.224-.056v.168c-.14.056-.196.195-.336.223l-.335-.055c-.112.041-.196.223-.336.279-.028-.14-.07-.182-.112-.279a6.62 6.62 0 0 1 -1.538.223v-.223l-.056-.056c-.196-.014-.573.056-.573.056-.042-.028-.07-.154-.112-.168-.098-.056-.21.07-.224.056-.182-.196.084-.196-.28-.224 0 0-.028.224-.056.112v-.056c-.321-.098-.139-.224-.335-.392-.112-.098-.364-.028-.462 0-.349-.154-.391-.573-.853-.629v-.168h-.28v-.224c-.475-.335-1.244-1.174-1.314-1.873h-.168c-.168-2.517.825-3.259 2.783-3.986h.909c.545-.14 1.832-.335 1.986-.909l.392-.056c.321-.475.909-.797 1.314-1.188.406-.406.713-1.007 1.189-1.315.252-.168.517-.168.741-.335.196-.154.266-.476.461-.63.196-.153.42-.195.63-.335.321-.238.559-.63.909-.853.168-.112.475-.168.629-.28.126-.098.182-.322.336-.391l.629-.168s.056-.182.112-.224c.126-.084.294-.07.392-.168.083-.084.083-.252.167-.335.21-.252.574-.364.853-.574l.686-.685c.419-.308.853-.629 1.077-1.133.909.014 1.146-.587 1.426-1.37.154.028.21.084.336 0 .126-.126.195-.42.335-.518.098-.055.196.098.336 0 .154-.111.196-.391.336-.517.139-.112.321-.126.461-.224.126-.084.168-.307.28-.391.252-.196.615-.154.853-.336.154-.126.322-.517.461-.629.14-.112.462-.182.63-.28.293-.196.279-.643.517-.909.336-.391 1.399-1.244 1.427-1.818-.14-.07-.042.028-.112-.111.14-.084.07 0 .112-.168-.098-.042-.056 0-.112-.056.629-.28.713-.825 1.077-1.371.111-.167.405-.279.517-.461.168-.266.224-.476.392-.741l.391-.392c.587-.965.629-1.412 1.706-1.93 0-.223.028-.153 0-.335l.112.056v-.056c.126-.196.07-.601.056-.965h.056c.098.182.112.252.392.28.265-.783 1.132-1.301 1.188-2.28h.168c.126-.405.671-1.384.965-1.65-.042-.14-.056-.126-.112-.224h.056c.182-.125.42-.139.574-.279.153-.154.209-.504.335-.685.14-.196.434-.322.574-.518l.223-.629s.196-.042.224-.112c.182-.336.14-.615.336-.909.251-.378.671-.671.853-1.133.182-.475.14-1.314.168-1.706l-.056-.391s.195-.21.223-.28c.098-.266.042-.461.168-.685.112-.182.378-.322.462-.573.112-.364.112-.867.279-1.315.112-.28.294-.433.336-.797h-.168c-.056-.154-.084-.126-.112-.336.042-.056.014-.014.056-.112h.112v.056c.14.098.084.196.224.28v-.056c.196-.307.154-.643.28-1.021.181-.531.587-1.048.797-1.594.126-.307.014-.727.056-.965.042-.265.391-1.762.517-1.93l.168-.055c.21-.364-.112-.644.112-.853.084-.098.056-.084.224-.112 0-1.245.811-1.902 1.188-2.783v-.112s.252-.909.112-1.02c.518-.532.49-1.847.741-2.616l.056-.517c.14-.294.56-.476.742-.741.293-.42.839-2.28.741-2.853h-.224v-.28h.224c-.056-1.02-.14-2.377-.518-3.132 0-.126.14-.434.168-.573.098-.462-.182-1.539-.28-1.986-.014-1.02-.041-2.056-.055-3.077-.042-.083-.224-.237-.28-.335.349-.14.391-.336.629-.573v-.392c-.14-.042-.266-.042-.335-.168l.055-.056c.14.07.098.112.224.056.07-.098.056-.322.056-.517l-.224-.112v-.056c.336-.07.252-.475.224-.853.154-.252-.084-.378-.056-.517.084-.182.308-.378.462-.518-.056-.993-.644-1.832-.392-2.965.042-.167.084-.489.168-.629s.308-.265.336-.461c.042-.266-.378-1.189-.462-1.483-.14-.545.308-1.286.168-1.873l-.28-1.021-.224-.168c-.055-.098.084-.042.112-.056l-.056-.965c-.056-.168-.265-.224-.335-.335-.392-.644-.126-2.615-.685-2.853.279-.434-.126-1.077 0-1.65.139-.63.559-.77.573-1.538-.671-.49-1.944-1.455-1.818-2.671.084-.77.489-1.273.335-2.112-.349-.084-.769-.601-.909-.909h-.167c-.042-.853-.881-1.636-1.133-2.391-.154-.462.112-.797 0-1.259-.182-.74-.518-1.65-.909-2.223-.042-.056-.196-.07-.224-.112l-.056-.392a5.064 5.064 0 0 1 -.335-.852c-.098-.322-.014-.658-.168-.91-.49-.825-1.972-1.901-2.168-2.908-.07-.336.168-.42.168-.741-.28-.308-.364-.825-.853-.91v.225l-.462.056c-.237-.42-.685-.714-.909-1.133-.154-.294.07-.7-.056-.91h-.056c-.125-.139-.209-.013-.391-.111-.308-.154-.196-.392-.741-.392v-.28c-.742-.237-1.357-.978-1.93-1.426-.588-.447-1.567-.587-1.986-1.188-.574-.825-1.063-1.664-1.594-2.56l-.28-.279c-.252-.475-.434-.895-.741-1.314-.35-.476-.937-.56-1.427-.91-.154-.111-.126-.447-.28-.573-.503-.377-1.132-.67-1.482-1.188-.154-.224-.182-.476-.336-.686l.168-.461-.517-.517c-.322-.168-.588-.154-.853-.336-.182-.126-.196-.392-.336-.573l-.741-.63c-.238-.153-.49-.153-.741-.28-.574-.307-.965-.908-1.483-1.258-.167-.112-.405-.098-.573-.224-.937-.727-1.776-1.398-2.224-2.503-.685-.056-1.594-1.09-1.762-1.65l.056-.461c-.098-.266-.489-.476-.853-.518-.042-.293-.112-.405-.056-.685.098-.056.098-.07.224-.112.042-.014.405 0 .629 0 .266.406 1.245 1.23 1.65 1.538.14.098.336.112.462.224.112.112.154.308.28.392.517.363 1.021.74 1.538 1.076.336.224.713.238 1.077.462.238.14.489.462.741.573l.392.056c.307.196.573.588.853.797.112.084.279.042.391.112l.462.518c.377.28.769.573 1.077.909.223-.084.223-.154.573-.168.196.252.489.377.741.573.727.546 1.385 1.384 1.93 2.112.182.223.518.377.685.629.168.266.182.601.336.853l.168.112.168.461.391.28.168.461c.14.21.42.406.573.63l.112.335c.168.196.979 1.105 1.133 1.189s.28 0 .392.112c.643.587 1.23 1.175 1.93 1.706.237.182.965.95 1.132 1.188.14.196.21.476.392.63.21.182.405.293.629.461l.168.28.392.056c.251.098.503.35.741.517.503.35.713 1.049 1.133 1.483.517.53 1.076.992 1.538 1.594.336.447 1.077.517 1.426.965.154.195.154.461.28.685.21.335.573.713.741 1.077l.224.853.518.517.111.797.168.112.224.63c.196.307.671.335.797.74.098.308-.084.713.056 1.077.112.28.42.49.573.741.196.322-.028.671.462.741z"/>
      <path d="m236.373 31.11.168.055v.056c-.21-.028-.154.042-.168-.112zm-48.737 48.047c0 .433-.196.545-.28.853l-.112.797c-.154.363-.461.74-.629 1.076-.098.196-.14.77-.224.91-.07.125-.364.195-.462.335-.251.391-.237.839-.461 1.258-.028.056-.196.126-.224.168-.321.476-.252 1.119-.461 1.706-.098.28-.322.63-.392.91-.154.573-.042 1.216-.168 1.761v.686c-.07.223-.251.643-.335.852-.168.378.056 1.147.112 1.427.097.433-.098.63 0 1.077.153.67.041 1.496.223 2.223.07.238.392.685.336.965-.126.63-.587.811-.853 1.258l-.056.574-.168.112c-.042.126.056.153.056.223 0 .322 0 .98-.056 1.37-.168.994.084 2.252.336 3.133l.056.629c.098.224.377.476.461.742l-.056.741-.224.168c-.097.209-.069 1.244 0 1.538.252 1.007.434 1.999.742 3.02.07.224.279.518.335.741.042.154-.07.322 0 .574.112.363.448.839.63 1.188.307.616.307 1.259.573 1.874.378.867.895 1.79 1.259 2.615.279.643.335 1.273.629 1.93.126.294.406.587.573.853.35.559.532 1.077.909 1.594l.462.462c.238.349.322.769.573 1.132.182.266.588.238.797.462.406.433.476 1.188.798 1.706.097.154.293.293.391.461l.112.336c.154.168.434.28.573.461.182.224.252.532.462.742.238.251.559.307.853.517.433.294.755.755 1.133 1.077.223.181.545.181.797.335.517.336.741 1.063 1.259 1.427.615.433 1.762.951 1.873 1.818-.195.139-.279.349-.461.517.224.783 1.063.951 1.077 1.874-.406.238-.671.349-1.371.335-.363-.349-.839-.559-1.188-.909-.266-.265-.406-.615-.63-.909-.321-.433-.825-.755-1.133-1.188-.209-.294-.293-.657-.517-.965l-.965-.965c-.14-.196-.154-.433-.28-.629-.139-.196-.391-.294-.573-.462-.168-.167-.28-.405-.461-.573-.364-.364-.784-.657-1.133-1.021-.14-.14-.21-.349-.336-.517l-.685-.574c-.168-.251-.196-.531-.392-.741-.293-.293-.503-.657-.797-.965l-.168-.056c-.154-.209-.195-.461-.335-.685a27.126 27.126 0 0 1 -1.762-2.908c-.294-.574-.854-1.133-1.133-1.706-.28-.574-.35-1.189-.685-1.706-.112-.168-.364-.336-.462-.518-.126-.252-.056-.461-.168-.741-.182-.475-.629-.979-.797-1.482-.056-.182.084-.336.056-.462-.042-.154-.266-.279-.336-.391-.084-.14-.042-.294-.112-.462-.125-.293-.335-.629-.461-.909l-.168-.741c-.335-.699-.685-1.58-1.021-2.279-.182-.392-.056-1.077-.224-1.482-.069-.182-.335-.322-.391-.518l-.056-1.258c-.098-.392-.35-.825-.462-1.189-.153-.517-.027-.965-.167-1.482-.042-.14-.21-.322-.224-.462-.028-.14.112-.349 0-.629-.042-.098-.196-.308-.224-.462-.112-.433.042-.797-.112-1.258-.028-.098-.196-.224-.223-.336-.14-.42-.042-.727-.168-1.188-.042-.182-.182-.434-.224-.63l.056-.853-.112-1.02.112-.056c.084-.266-.196-.63-.224-.742-.084-.28.154-.377.112-.629-.056-.335-.266-.587-.168-.909-.252-.042-.224-.07-.224-.335.336-.406-.125-1.65-.111-2.224 0-.196-.042-.727 0-.965.041-.265.237-.629.279-.853.042-.223-.154-.168-.112-.391.112-.713.056-1.622.056-2.615h.168v-.112c.084-.168-.028-.182-.056-.336.084-.223.294-.405.392-.629h.168v-.224c.195 0 .139.126.223-.056.154-.321.098-1.062.28-1.538.462-1.16.713-2.797 1.259-4.041v-.853c.07-.196.321-.462.391-.685v-.462c.042-.182.182-.447.224-.63l-.056-.223c.056-.224.308-.49.392-.685.237-.517.321-.923.629-1.37.266-.392.769-.644 1.021-1.077.14-.252.14-.504.28-.741.223-.364.629-.686.797-1.077l.112-.63c.209-.391.293-.867.517-1.426.056-.14.825-1.118.965-1.258.21-.196.587-.196.797-.392.266-.266.448-.685.741-.909.35-.28.993-.685 1.021-1.258-.098-.042-.056 0-.112-.056.364-.014.35-.154.574-.28.042-.35.279-.741.168-1.133-.042-.153-.224-.545-.112-.853.042-.14.112-.335.112-.629.279-.196.433-.545.685-.741.447-.35 1.175-.727 1.482-1.189.112-.168.07-.391.224-.517.797-.657 1.72-1.147 2.559-1.762.476-.35.825-.867 1.315-1.189-.014-.098 0-.28 0-.517l.909-.91c.895-.67 1.93-1.104 2.853-1.761.517-.364.979-.881 1.482-1.259.378-.28.825-.405 1.189-.685l.573-.573.63-.224c.937-.601 1.818-1.342 2.783-1.93l.685-.223c.154-.098.279-.364.461-.462h.224c.182-.084.308-.293.462-.391.209-.14.475-.14.685-.28.503-.35.797-.965 1.37-1.259.266-.14.49-.07.797-.167.518-.154.993-.322 1.595-.462l1.133-.056c.964-.308 2.083-.587 2.964-1.02.112-.057.266-.238.392-.28.238-.084.405-.042.573-.168.112-.14.098-.434.224-.573.252-.266.979-.406 1.315-.63 1.146-.74 2.419-1.496 3.929-1.874.546-.14.532.266.742.462.153.14.461.28.573.461l.112.518c.224.531.615.81.461 1.65l-.965.461c-.209.224-.573 1.329-.573 1.818.308.224.881 1.23 1.133 1.594.112.168.615.49.685.63v.685l.168 1.133c0 .07-.098.153-.056.28.084.25.391.6.517.852.238.518.462 1.37.574 1.93.056.28-.266 1.636-.336 1.874-.21.671-.196 1.314-.461 1.93-.084.21-.308.265-.392.629l-.056 1.258c-.098.392-.336 1.231-.28 1.706.042.448-.07 1.063.056 1.65.07.336.182.812.056 1.26-.112.39-.503.698-.629 1.076v.461l-.28 1.986c-.07.224-.307.294-.391.462l-.168.964c-.224.63-.629 1.259-.853 1.874l-.112 1.133s-.196.07-.224.112c-.21.293-.391.713-.517 1.076-.238.672-.098 1.329-.462 1.874l-.573.518c-.168.237-.238.461-.392.685l-.391.336c-.168.293-.154.545-.336.797-.378.517-.993.909-1.371 1.426-.279.391-.349.909-.629 1.314-.391.588-.867 1.19-1.314 1.762l-.63.518c-.14.182-.223.377-.391.517-.364.266-1.077.266-1.427.574-.238.21-.321.545-.517.797-.196.251-.546.42-.741.685-.196.252-.308.56-.518.797-.14.168-.447.266-.629.391-.546.42-1.021.937-1.594 1.37-.826.616-1.511 1.441-2.28 2.113-.378.321-.797.35-1.315.573-.279.112-.517.391-.797.517-.154.07-.783.238-.965.168-.084-.028-.321-.196-.573-.112-1.189.406-1.888 1.482-3.412 1.538-.07-.195-.056-.28-.28-.335-.545-.392-1.734.252-2.28.391-.531.14-1.007-.363-1.37-.517 0-.364.042-.448-.056-.685.238-.042.489-.14.629-.28.196.112.322.21.63.224l.167-.168c.084-.168-.042-.378.056-.517.056-.084.196-.056.28-.112.252-.182.42-.546.685-.742.308-.223.755-.363 1.021-.629.14-.126.196-.35.336-.461.503-.364 1.58-1.049 2.167-1.259l.574-.056c.21-.084.447-.307.685-.391.35-.126.671-.056.965-.224l.392-.391c.195-.14.447-.182.629-.336.224-.224.42-.56.685-.741.196-.126.378-.098.518-.28.349-.49.657-.909 1.132-1.259.154-.111.364-.111.518-.223.238-.182.447-.574.741-.685h.797s.112-.112.168-.112h.112c.182.042.294.363.685.223.112-.041.741-.629.741-.629-.042-.154.658-.727.742-.853.391-.573.503-1.23.965-1.706.377-.391.937-.643 1.188-1.133.252-.503.294-1.454 1.021-1.482l.28.28c.098.21 0 .321.112.461v-.056c.349-.28.447-.797.741-1.132.168-.196.503-.406.629-.63.084-.167.028-.307.112-.461.462-.783 1.063-1.776 1.371-2.671v-.797c.056-.14.279-.35.335-.517.07-.182.014-.308.112-.462l.224-.168c.364-.643.419-1.608.741-2.28l-.112-.684c.028-.168.224-.965.168-1.077-.098-.224-.168.028-.168-.336-.154 0-.098.07-.168-.112.084-.167-.083-.545 0-.853.084-.321.308-.965.112-1.426-.084-.196-.265-.35-.335-.573l.112-.112c.097.056.097.07.223.112v-.224c-.084-.154.07-.49 0-.797l-.167-.462c-.644-.098-1.189-.699-1.371-1.258-.168-.532 0-1.077-.224-1.426-.07-.042-.098-.042-.224-.056-.237.223-.657.098-1.02.223-1.385.476-2.853-.335-3.413-1.188-.377-.56-.447-1.343-1.37-1.37-.14.083-.406.041-.574.111-.349.168-.727.476-1.076.63-.42.181-.909.07-1.315.28l-.056.167-.573-.056-.28.336-.573-.056c-.126.056-.28.28-.392.335-.713.378-1.357.686-1.986 1.133-.308.21-.545.587-.853.797-.238.154-.503.182-.741.336l-.629.629-.336.112c-.07.056-.056.168-.112.223-.21.21-.448.336-.685.518-.154.112-.21.322-.336.461-.14.14-.979.714-1.133.797l-.685.168c-.21.126-.671.518-.797.741-.084.154 0 .294-.112.392l-.28.056-.853.797c-.056.112 0 .266-.056.336-.251.237-.559.112-.909.28-.741.363-1.594.88-2.335 1.188-.462.196-.965.238-1.371.517-.685.462-1.37 1.567-1.818 2.28-.112.181-.112.405-.223.573-.532.755-1.413 1.357-1.93 2.056-.084.111-.084.237-.168.335-.084.084-.266.14-.336.224-.545.727-.643 1.79-1.021 2.67-.042.099-.182.239-.224.337l-.111.573c-.07.126-.294.238-.336.391-.098.294.07.504 0 .742-.154-.028-.252-.056-.462-.056l-.125.056zm-11.553 13.27c.112-.027.112 0 .168-.055.126-.14.084-.266.279-.336.154-.112.406-.042.574 0v.28c-.168.168-.839 1.356-.909 1.594-.014.056-.056 1.077-.056 1.077l.168.056c.084.168-.224 1.678-.28 1.762-.14.293-.475.573-.797.685-.266.084-.448 0-.574.056-.153.098-.181.126-.223.335.056.112.028.07 0 .224h.168c.097-.112.083-.098.279-.112.126.154.518.476.392.686-.168.531-.741.965-1.021 1.426l-.112.461-.392.392c-.153.252-.181.545-.335.797-.098.154-.336.252-.392.462l-.056.908c-.279.923-.699 1.902-.685 3.021-.224.154-.475.182-.909.168-.126.224-.182.559-.336.797l-.461.461.056.28c-.056.224-.266.545-.392.741-.14.21-.419.294-.573.518l-.056-.056s-.014-.014-.056-.112c.154-.168.294-.35.336-.63-.084-.027-.098-.041-.224-.055-.07.251-.252.419-.336.629-.098.238-.042.531-.168.741-.139.224-.405.503-.517.741v.28h-.112c-.112.126-.336.363-.391.517-.154.308-.21.699-.392.965-.42.573-1.035 1.049-1.259 1.818-.195-.028-.223-.112-.335.056-.014.084.112.336.112.336-.084.321-.364.531-.518.797-.238.433-.35.867-.629 1.258-.168.238-.49.476-.63.741-.237.448-.349.839-.629 1.259-.419.629-1.119 1.202-1.482 1.874-.266.517-.364.937-.686 1.37-.167.224-.531.294-.685.517-.182.252-.279.602-.517.798-.294.251-.783.209-1.133.391s-.895.699-1.259.965c-.545.406-.783 1.147-1.258 1.65a29.903 29.903 0 0 1 -1.65 1.594c-.07.518-1.259 1.636-1.707 2.056-1.202 1.077-2.223 2.293-3.65 3.132-.629.378-1.734.126-1.93-.461-.098-.112-.153-.378-.112-.462.168-.503.784-.839 1.077-1.258.881-1.203 1.944-2.405 3.133-3.3.322-.238.517-.63.797-.909.238-.238.587-.406.797-.686.546-.713 1.063-1.398 1.595-2.111l.685-.573c.21-.28.489-.476.685-.742.14-.181.196-.405.336-.573.056-.056.181-.042.223-.112.14-.224.126-.433.28-.629.308-.378.741-.671 1.077-1.021.196-.196.238-.461.392-.685l.741-.629c.531-.7 1.202-1.315 1.818-1.93.335-.336.797-.587 1.077-.965.279-.378.419-.769.685-1.189.14-.223.447-.447.573-.685.182-.363.182-.657.392-.965.321-.461.825-.895 1.133-1.37l.167-.462c.154-.167.434-.223.574-.391.126-.182.168-.434.335-.574.238-.181.518-.265.686-.517.279-.419.349-.825.573-1.314.056-.126.28-.28.336-.392l.112-.517c.223-.364.797-.783 1.021-1.133.209-.322.181-.699.335-1.077.42-.965 1.021-2.041 1.483-2.964l.111-.574c.112-.196.392-.461.518-.685l.112-.517c.07-.112.182-.042.279-.112.056-.042.448-.685.462-.853-.294-.476.699-1.804.853-2.168.112-.251.014-.839.112-1.076l.056-.91.168-.167c.056-.154-.042-.392-.056-.462-.042-.224.07-.475.112-.629v-1.482l.111-.056.056-.685.168-.112c.126-.308-.112-.853-.168-1.021-.111-.294 0-.979.056-1.189.084-.35-.042-.867-.056-1.132-.042-.658.35-1.245.168-1.93-.098-.35-.126-.797-.224-1.189v-.517c-.069-.238-.293-.532-.391-.741l-.168-.797c-.07-.126-.294-.252-.336-.392l-.056-.63c-.307-.74-.713-1.635-1.02-2.39-.21-.518-.196-.965-.462-1.427l-.224-.168v-.223c-.07-.168-.265-.322-.335-.462-.196-.363-.238-.88-.462-1.258-.238-.406-.755-.588-1.021-.965-.391-.532-.587-1.161-.965-1.706l-.391-.336c-.182-.294-.434-.657-.574-.909l-.111-.517c-.07-.154-.28-.308-.336-.462l-.056-.629c-.056-.112-.238-.238-.28-.392v-.517c-.042-.084-.979-.741-1.133-.853-.573-.392-.951-1.203-1.37-1.762-.126-.168-.364-.308-.462-.517-.097-.21-.069-.462-.056-.63-.377-.223-.811-.587-1.188-.74-.378-.155-.755-.183-1.077-.392-.755-.504-1.538-1.105-2.336-1.539-.489-.265-1.104-.335-1.594-.629-.657-.391-1.175-.867-1.762-1.314-.154-.112-.224-.294-.336-.462l-1.02-1.02c-.364-.56-.364-1.343-1.259-1.371-.35.238-1.65.182-2.112.056a18.286 18.286 0 0 1 -1.538-.573c-.266-.098-.643-.07-.909-.168-.308-.112-.685-.434-.965-.574-.182-.084-.28.056-.392 0-.209-.097.028-.21-.461-.223-.056.14-.112.335-.392.391v.168c-.21.07-.601.154-.685.336-.084.153-.014.28 0 .461.028.322-.084.741-.056.965.042.42.364 1.16.168 1.762-.182.573-.574 1.007-.965 1.37-.056 1.762.391 3.524.797 5.007l.056.74c.196.574.531 1.231.741 1.763l.056.517c.098.21.252.517.392.741.084.112.279.14.335.28v.461c.056.21.168.532.28.742.098.195.336.391.462.573.349.531.517 1.105.853 1.65.335.531.825 1.105 1.076 1.706.112.238.028.433.112.741.112.392.294 1.049.392 1.427l.056.964h-.112c-.21.308-.322.77-.168 1.189.056.168.266.266.336.392l.168.74c.181.42.559.882.797 1.26l.223.629c.154.223.42.391.63.573l.685.797c.587.447 1.189.853 1.706 1.37.196-.056.266-.167.392-.111.084.125.461 1.817.461 1.817-.251.42-.531 1.021-.909 1.315-.168.126-.377.112-.573.224-1.692.992-2.839.713-4.559-.056-.322-.14-.643-.07-.965-.224l-.336-.336h-.279c-.784-.377-1.189-1.356-1.874-1.818-.378-.251-.84-.293-1.259-.517l-.336-.392c-.643-.475-1.272-.922-1.706-1.594-.238-.363-.098-1.007-.336-1.37-.111-.168-.363-.21-.517-.336-.21-.181-.629-.67-.853-.797l-.462-.056c-.083-.028-.475-.42-.573-.517-.07-.07-.405-.448-.461-.517-.14-.196-.07-.504-.224-.686-.42-.475-1.189-.81-1.539-1.188-.167-.196-.195-.476-.335-.686l-.685-.685c-.42-.601-.728-1.174-1.133-1.762-.434-.615-1.301-.88-1.93-1.314-.755-.504-1.455-1.566-1.706-2.56-.182 0-.112.085-.168-.111.112-.252-.42-1.496-.518-1.818-.125-.447-.083-.797-.279-1.133l-.63-.629-.111-.517c-.126-.252-.35-.574-.462-.853v-.337c-.126-.238-1.007-.56-1.259-.741-.083-.056-.517-.937-.629-1.189-.266-.657.126-3.691.336-4.726.07-.364-.294-.63-.392-.853-.182-.42-.224-.951-.335-1.427-.322-1.258.391-2.237.461-3.132-.154-.112-.196-.14-.224-.392.042-.056.014-.014.056-.111.182.027.182.041.336 0a8.841 8.841 0 0 1 .28-1.818v-.63c.139-.405.433-1.076.461-1.538 0-.182-.126-.07-.168-.168l.056-.629c-.224 0-.182 0-.168-.336-.167-.28.126-.937 0-1.02-.084-.336-.349-.588-.461-.91l-.168-1.02-.28-.28c-.112-.182-.112-.391-.223-.573-.14-.196-.392-.28-.518-.518.56-.377 1.231-1.412 1.538-2.055.672.21 1.567.252 2.224.391.308.07.531-.014.741.112.644.392 1.692 1.748 2.392 1.93l1.37-.168c.811.14 1.608.35 2.28.574l.517.055c.532.28 1.413.84 1.818 1.259.182.182.294.531.518.685.237.168.587-.028.909.112.279.126.265.322.741.336a.454.454 0 0 1 .28-.224c.391.587.979.657 1.594 1.02.825.504 1.622 1.203 2.615 1.539 1.063.35 2.224.601 3.245.909l1.132.168c.937.391 1.455 1.063 2.112 1.706 0 .475-.196.95-.112 1.076.294.546.979.63 1.818.63h.685c.644.224 1.007.671 1.595.909.028.643.503.88.853 1.188.517.462.923 1.05 1.426 1.539.238.223.546.363.741.629 1.497 1.986 3.623 3.37 5.636 4.838.084.07.588.602.63.686l.112.573.279.168c.21.251.378.643.63.853.307.265 1.048.88 1.258 1.188.182.28.168.7.392.91l.573.167c.406.252.574.825.685 1.37.266.126.728.294.909.518.784.937.951 2.377 1.371 3.706.084.251.308.6.392.853.139.405.042.67.167 1.076.14.42.406.867.574 1.259.126.322.112.587.279.853.224.35.602.783.742 1.188l.167 1.595c.14.377.364.909.518 1.258.154.35.07.657.224.965.14.294.461.657.573.965v1.02c.07.224.28.532.336.742.14.517-.392.601-.224 1.077.07.196.28.643.336.853l-.112 1.132c.056.224.307.63.168 1.021-.07.196-.322.518-.392.741-.14.434 0 .881 0 1.315v.028z"/>
      <path d="m103.264 88.665c-.014.56.042.98.223 1.315.014.028-.083.126-.055.224.028.084.153.28.167.335v.686l.224.223c.154.308.07.574.168.91.182.6.503 1.314.685 1.873l.168 1.259c.056.21.196.237.224.28v.39c.14.462.265 1.092.461 1.483l.056.573c.14.462.21 1.063.336 1.595l.056.965c.112.209.363.573.461.797.084.237 0 .433.112.629l.336.28v.461c.042.098.182.098.224.168.056.084.111.433.223.629.308.49.7 1.119.909 1.706.098.28.014.462.112.741.126.378.322.937.462 1.315l.112.685c.629 1.286 1.454 2.573 2.055 3.929.168.378.112.686.28 1.077.084.196.28.392.336.629.098.364-.028.658.112.965.447.993 1.258 1.86 1.818 2.783.181.308.042.853.167 1.077.154.266.588.377.742.629.098.154.028.308.112.462.195.321.545.517.741.853.21.363-.112.993.056 1.426.07.196.293.364.391.573h.168c.042.588.518 1.035.741 1.483.14.265.154.629.336.853.084.098.266.167.336.279l.167.462.28.224c.14.237.14.559.336.741l.279.056c.28.153.63.377.909.573.238.154.336.405.518.629.168.224.517.336.685.574.322.461.322 1.118.462 1.762 1.007.349 2.013 1.328 2.615 2.111l.391.28c.154.196.266.419.462.573.643.49 1.538.867 1.986 1.538.21.308.224.867.517 1.077.182.14.336.056.574.168.181.084 1.062.895 1.258 1.077a8.85 8.85 0 0 1 1.371 1.762l.168.629c.209.308.685.489.909.797.279.378.657.713.909 1.077.223.321.293.657.517.965.392.545.881.559 1.594.797.616.209 1.133.713 1.651 1.021l.279.055c.084.07.098.252.168.336.07.098.196.098.28.168.112.084.084.224.168.335.181.266.573.462.741.742.182.293.168.727.517.853.252.139 1.147.167 1.483.279.321.126.531.504.853.63.447.181.909.209 1.314.461.14.084.322.322.462.392.419.209.881.167 1.314.335.504.21.881.629 1.427.853 0 .476.182.546.335.853h.168c.14.588 1.748.783 2.28 1.077.196.112.489.308.741.392l1.189.167c.545.196 1.258.336 1.818.574.279.112.573.391.853.517l.461.056c.07.042 1.203.853 1.259.909.21.252.378.657.685.797.196.14 1.105 0 1.189-.168s.028-.321.112-.461c.321-.224.895-.042 1.37-.112.742-.126 2.042.238 2.56.573l.111.168c.462.252 1.119.294 1.315.797.042.056.028.056.056.168 1.175-.028 2.154.126 3.133.336.545.125 1.398.111 1.985.279h.686c.685.154 1.678.168 2.335.392l2.853.168c.336.083.574.307.853.391.336.112.755.112 1.021.168l1.594-.056.112.168c.308.14.993.042 1.315.112l1.874-.056c1.874 0 3.524-.336 5.118-.741h.797c.252-.056.602-.224.909-.168.196.042.532.168.798.112.321-.07.699-.21 1.02-.28l.909-.056c.462-.182 1.161-.461 1.707-.517.447-.042.923.363 1.538.223l1.077-.223.112-.224.965-.28c.014-.126.028-.14.056-.224h.112c.041.266.097.238.391.224.308-.349 1.776-.657 2.391-.797.112-.349.14-.419.63-.391.196.125.601 0 .797-.112.615-.322 1.217-.713 1.93-.965l.391-.056c.238-.126.448-.448.686-.573.265-.14.531 0 .853-.112.182-.07 1.077-.644 1.258-.797.448-.364.7-1.021 1.189-1.315.182-.112.392-.028.629-.112.21-.084.434-.391.686-.391.321-.014.853.126 1.188 0 .462-.182.602-.532 1.315-.574.448.406.909.616.909 1.483-.21.153-.14.545-.336.685-.125.084-.279.042-.391.112l-.336.335-.335.056c-.112.056-.196.28-.28.336-.182.126-.448.056-.629.168-.434.265-.965.671-1.483.853l-.629.056c-.322.153-.657.517-.965.685-.196.112-.364.07-.574.168-.167.084-.307.321-.461.391l-.517.112c-.294.126-.896.392-1.189.573-.056.028-.126.196-.168.224l-.685.112c-.084.028-.266.196-.336.224-.224.098-.391.028-.629.112-.797.293-1.622.797-2.392 1.132-.811.364-2.013.42-2.559 1.021-.168-.238-.503.056-.797.056-.783 0-2.433.364-3.245.629l-.853.056c-.265.07-.391.14-.573.224l-.853-.056s-.252.168-.28.168c-.056.014-.349-.112-.517-.056-.546.21-1.273.392-1.874.573-.839.238-1.161-.475-1.93-.279-.154.042-1.217.181-1.65.112-.14-.028-.35-.182-.63-.112-.713.167-1.104.098-1.93.279-.279.056-.391-.098-.573-.056-.517.112-1.44.126-1.93 0-.685-.167-1.217.126-1.762 0-.266-.07-.783.084-.797.056-.112-.126-.056-.154-.224-.223-.294-.266-.713.014-1.133-.168-.573-.252-1.398-.21-2.167-.392h-1.259c-.391-.112-.699-.196-1.133-.112v-.279c-.755-.014-1.3-.252-1.874-.056-.335.112-.671.391-1.021.517-.097-.224-.181-.154-.223-.461-.21.028-.168.028-.28.112v-.168c-.559-.028-.769-.084-1.189 0v.168h-.629c-.14.251-.294.447-.685.461-.112.07-.546.098-.686 0l-.056-.168c-.391-.265-1.09-.321-1.37-.517-.126-.126-.182-.308-.336-.392-.307-.182-.601.112-.797.112-.587 0-1.175-.14-1.706-.335v-.168c-.755-.028-1.538-.923-2.168-.741v-.168l-.685-.224v-.168c-.364.014-1.356.364-1.818.224-.28-.084-.517-.196-.797-.224-.042-.21 0-.154-.168-.224-.126-.069-.419-.097-.685-.111v-.168c-.196-.126-.182-.21-.518-.224-.056-.042-.056-.028-.167-.056v-.28c-.294-.097-1.175-.475-1.259-.741-.322-.042-.42-.154-.797-.168v-.223c-.839-.042-1.343-.406-2.112-.63l-.392.056-.391-.391-.518-.056v-.112l-.223-.056h-.462s-.182-.266-.224-.28l-.517-.111s-.224-.196-.28-.224c-.209-.084-.349 0-.517-.112-.154-.098-.294-.322-.462-.392h-.279c-.154-.083-.266-.349-.392-.461-.14-.112-.35-.098-.461-.224v-.224c-.112-.139-.42-.041-.518-.223-.084-.154-.07-.392-.112-.518-.545-.195-.643-.573-.965-.741l-.573-.112-.224-.279c-.14-.084-.28-.07-.391-.168-.042-.042-.084-.21-.112-.224h-.336c-.154-.07-.35-.322-.517-.391-.224-.112-.462-.056-.686-.168-.223-.126-.153-.294-.517-.336v-.224c-1.399-.755-2.531-1.272-3.524-2.447l-.224-.056c-.098-.07-.993-.853-1.021-.909.028-.042.084 0 .056-.112h-.056c-.126-.125-.35-.209-.517-.279v-.168h-.224v-.168c-.308-.126-1.049-.937-1.133-1.133h-.168c-.14-.811-1.384-1.748-2.055-2.111-.28-.154-.056-.42-.518-.462v-.279s-.671-.434-.685-.462l-.056-.391-.224-.056.056-.28-.28-.168c-.139-.237.014-.321-.223-.461-.336-.224-.812.07-1.077.112-.308-.671-1.608-.797-2.168-1.259h.168v-.224c-.573-.209-.755-.839-1.371-.964l-.056-.574h-.223v-.224l-.056-.055c-.154 0-.266 0-.336-.056.14-.07.042.028.112-.112h-.056c-.154-.504-.615-.574-1.133-.741v-.168c-.363-.042-.279-.182-.629-.224v-.168c-.364 0-.35-.112-.629-.168-.028-.111 0-.111-.056-.167v-.056h-.168v-.224c-.14-.07-.168-.098-.392-.112-.07-.447-.405-.559-.517-.965h-.168c-.028-.447-.727-1.398-1.133-1.426.028-.35.14-.28.168-.629h-.224l.056-.392c-.405-.182-.433-.475-.685-.797-.056-.07-.182-.084-.224-.168-.112-.252-.042-.405-.168-.629-.139-.238-.391-.42-.461-.741-.112-.028-.112 0-.168-.056.042-.056.028-.056.056-.168h-.336v-.056s.07-.098.112-.168h.168c-.028-.265-.084-.349-.336-.391-.041-.196-.559-1.133-.685-1.259-.126-.112-.363-.154-.461-.28-.21-.307-.07-.545-.518-.629-.028-.238-.098-.573-.223-.741v-.056h-.168c-.028-.21-.07-.182-.112-.391l-.336-.056v-.168h-.168v-.28l-.279-.056-.112-.391c-.28-.028-.28-.098-.574-.112l-.056-.629c-.573-.224-.853-1.343-1.188-1.986.126-.098.14-.084.168-.28-.588-.419-.322-2.097-.798-2.783-.517-.363-1.062-.685-1.482-1.132h-.224l-.056-.336c-.251-.126-.335-.28-.629-.392v-.167h-.28c-.154-.49-.321-.825-.517-1.077.126-.14.056-.014.056-.224-.098-.056-.14-.112-.224-.168v-.279h-.28v-.112c.14-.252-.098-.294-.167-.462-.112-.265.265-.419.111-.741h-.111l-.056-.461-.224-.112c-.084-.14-.028-.322-.112-.462l-.392-.279v-.392c-.084-.14-.377-.21-.461-.335 0-.014.098-.224.056-.336-.056-.168-.322-.364-.392-.517-.014-.028.112-.168.056-.28l-.28-.224.056-.056c-.042-.293-.181-.321-.223-.629l-.392-.056v-.112c.224-.349-.112-.601-.28-.853.014-.042 0-.168 0-.335h-.335c-.042-.308-.616-1.413-.965-1.483-.042-.433-.224-.615-.224-1.132h-.168c-.098-.154-.21-.28-.28-.462h.112l.056.056v-.573c-.251-.294-.056-.532-.112-.909-.125-.056-.153-.042-.223-.168.377-.322-.308-2.895-.63-3.65h-.167c.084-.49.028-.503-.168-.965v-.224l-.168-.055c-.168-.336-.042-.756-.112-1.021-.014-.056-.154-.266-.168-.336-.112-.391.112-.797-.112-1.133-.084-.055-.21-.111-.28-.167.14-.532-.013-1.3-.111-1.874l.056-.392c-.042-.126-.238-.14-.28-.224v-.28s-.154-.195-.168-.223c-.154-.391 0-.643-.168-1.02-.126-.28-.391-.197-.461-.574.126-.014.14-.028.224-.056-.182-.476-.392-.741-.392-1.426l-.336.056v-.224c.21-.224.196-.77.056-1.133h-.111s.195-.224.167-.391c-.042-.224-.181-.448-.224-.63-.07-.293.028-1.118-.461-1.258-.07.14.028.042-.112.112v-.462c.294-.28-.07-.671 0-1.132.014-.126-.084-.728 0-1.021.126-.476.378-.98.518-1.37.041-.127-.084-.168-.056-.225.097-.265.433-.307.573-.517 1.748-2.629 4.937-2 6.265.574.434.839.392 3.09.224 3.705-.098.392.252.755.112 1.021l-.168.056-.056.461c-.07.126-.377.21-.461.336-.098.154-.14.657-.168.797-.126.601.629 2.35.741 2.671.112.336.028.545.392.63zm147.386-1.704h.113v.056c-.099-.042-.056 0-.113-.056z"/>
      <path d="m106.452 114.562h-.223v-.056l.223-.111zm133.612 1.317h.168v.168h-.168zm-.447.445c.112.028.112 0 .168.056h-.056s-.014.014-.112.056zm-3.482 5.874v.168c-.21.07-.238.14-.518.168v-.112c.252-.21.07-.238.518-.224zm-123.362 2.279s.015.014.057.112h-.057zm.742 1.986c-.041-.308-.125-.224-.167-.518h.112c.055.28.181.252.279.462h-.056s-.056.028-.168.056zm3.93 5.916s.028.056.056.168h-.056zm105.543 13.789h.113v.056c-.099-.042-.056 0-.113-.056zm-2.615 2.32h.113v.057c-.099-.043-.057 0-.113-.057z"/>
    </g>
  </g>
</svg>